<svg width="164" height="164" viewBox="0 0 164 164" fill="none" xmlns="http://www.w3.org/2000/svg">
<path fill-rule="evenodd" clip-rule="evenodd" d="M43.9167 150.333H136.167C137.979 150.333 139.717 149.613 140.999 148.332C142.28 147.05 143 145.312 143 143.5V20.5C143 18.6877 142.28 16.9496 140.999 15.6681C139.717 14.3866 137.979 13.6667 136.167 13.6667H40.5C35.0631 13.6667 29.8488 15.8265 26.0043 19.671C22.1598 23.5155 20 28.7297 20 34.1667V126.417C20 132.76 22.5198 138.843 27.005 143.328C31.4903 147.814 37.5736 150.333 43.9167 150.333ZM129.333 116.167V136.667H43.9167C41.1982 136.667 38.5911 135.587 36.6688 133.665C34.7466 131.742 33.6667 129.135 33.6667 126.417C33.6667 123.698 34.7466 121.091 36.6688 119.169C38.5911 117.247 41.1982 116.167 43.9167 116.167H129.333ZM45.0969 33.1077C44.4009 33.8096 44.0069 34.7592 44 35.7513V96.2487C44 97.2429 44.3918 98.1965 45.0893 98.8999C45.7869 99.6033 46.7331 99.999 47.72 100H115.28C116.265 99.9921 117.207 99.5942 117.903 98.8923C118.599 98.1904 118.993 97.2408 119 96.2487V35.7513C119 33.6811 117.335 32 115.28 32H47.72C46.7352 32.0079 45.793 32.4058 45.0969 33.1077ZM51.5 47.1111V39.5556H59V47.1111H51.5ZM104 47.1111V39.5556H111.5V47.1111H104ZM51.5 62.2222V54.6667H59V62.2222H51.5ZM104 62.2222V54.6667H111.5V62.2222H104ZM51.5 77.3333V69.7778H59V77.3333H51.5ZM104 77.3333V69.7778H111.5V77.3333H104ZM51.5 92.4444V84.8889H59V92.4444H51.5ZM104 92.4444V84.8889H111.5V92.4444H104Z" fill="white"/>
</svg>
