<svg width="272" height="155" viewBox="0 0 272 155" fill="none" xmlns="http://www.w3.org/2000/svg">
<path d="M263.105 39.9654C263.109 39.9666 263.099 40.0118 263.077 40.0994C263.05 40.199 263.015 40.3262 262.972 40.4858C262.87 40.8398 262.728 41.3346 262.547 41.9642C262.357 42.6042 262.129 43.3886 261.887 44.3058C261.643 45.2222 261.344 46.2598 261.067 47.4214C260.775 48.579 260.459 49.8474 260.162 51.219C259.839 52.585 259.553 54.0574 259.239 55.6034C258.65 58.7038 258.086 62.1282 257.637 65.7418C257.203 69.359 256.926 72.8194 256.752 75.9706C256.685 77.5474 256.607 79.045 256.592 80.4486C256.551 81.8518 256.552 83.159 256.557 84.353C256.546 85.5466 256.587 86.6258 256.603 87.5738C256.617 88.523 256.649 89.339 256.68 90.0058C256.704 90.6602 256.723 91.1746 256.737 91.5426C256.741 91.7074 256.743 91.8398 256.746 91.9426C256.746 92.033 256.745 92.0794 256.741 92.0794C256.736 92.0798 256.73 92.0338 256.721 91.9442C256.713 91.841 256.703 91.7098 256.689 91.5454C256.665 91.1778 256.631 90.6638 256.588 90.0102C256.543 89.3434 256.497 88.527 256.471 87.5782C256.443 86.6294 256.389 85.5494 256.39 84.3546C256.375 83.159 256.363 81.8502 256.397 80.445C256.403 79.0394 256.473 77.5394 256.535 75.9594C256.697 72.8034 256.968 69.3366 257.403 65.7134C257.853 62.0934 258.424 58.6642 259.026 55.5618C259.347 54.0146 259.639 52.5414 259.971 51.1754C260.277 49.8038 260.603 48.5358 260.905 47.3798C261.193 46.2198 261.504 45.1838 261.761 44.2702C262.014 43.3554 262.255 42.5738 262.459 41.9374C262.658 41.3134 262.815 40.8226 262.927 40.4718C262.979 40.315 263.021 40.1902 263.054 40.0922C263.084 40.007 263.101 39.9642 263.105 39.9654Z" fill="#E1E1E1"/>
<path d="M250.001 149.482C250.001 149.482 242.494 110.592 242.477 102.592C242.454 91.5212 250.929 87.1132 250.929 87.1132L247.636 77.7216H265.75L262.89 87.0472C262.89 87.0472 272.427 92.1032 271.097 103.587C268.61 125.057 264.647 149.482 264.647 149.482H250.001Z" fill="#F5F5F5"/>
<path d="M267.902 53.8822C267.912 53.895 267.727 54.0626 267.384 54.3542C267.038 54.6426 266.548 55.073 265.958 55.6182C264.774 56.7058 263.222 58.3026 261.728 60.2486C260.239 62.1982 259.102 64.1138 258.36 65.5398C257.988 66.2522 257.7 66.837 257.512 67.2458C257.32 67.653 257.206 67.8758 257.192 67.8694C257.176 67.8634 257.261 67.6286 257.428 67.209C257.591 66.7874 257.856 66.1898 258.211 65.4642C258.918 64.0118 260.041 62.0682 261.541 60.105C263.044 58.1454 264.628 56.5554 265.846 55.4938C266.454 54.9622 266.962 54.5498 267.326 54.2826C267.688 54.0122 267.892 53.869 267.902 53.8822Z" fill="#E1E1E1"/>
<path d="M254.428 44.8177C254.443 44.8133 254.522 45.0385 254.653 45.4505C254.783 45.8617 254.959 46.4605 255.166 47.2041C255.58 48.6905 256.103 50.7585 256.593 53.0621C257.081 55.3669 257.442 57.4689 257.668 58.9957C257.78 59.7593 257.863 60.3777 257.91 60.8069C257.959 61.2357 257.978 61.4737 257.962 61.4761C257.946 61.4785 257.896 61.2445 257.82 60.8201C257.737 60.3525 257.631 59.7485 257.503 59.0225C257.236 57.5045 256.849 55.4113 256.362 53.1109C255.873 50.8117 255.377 48.7421 255.004 47.2465C254.826 46.5313 254.678 45.9357 254.564 45.4749C254.461 45.0561 254.412 44.8221 254.428 44.8177Z" fill="#E1E1E1"/>
<path d="M249.162 62.5158C249.172 62.5034 249.308 62.6002 249.547 62.7866C249.786 62.9718 250.122 63.2526 250.527 63.611C251.338 64.3262 252.415 65.3678 253.507 66.607C254.599 67.8482 255.496 69.0478 256.103 69.943C256.406 70.3906 256.643 70.759 256.796 71.0194C256.951 71.2798 257.03 71.4274 257.016 71.4362C256.986 71.4558 256.606 70.9062 255.967 70.0394C255.327 69.1726 254.415 67.997 253.33 66.7634C252.244 65.5314 251.193 64.4774 250.414 63.7334C249.636 62.9894 249.138 62.5434 249.162 62.5158Z" fill="#E1E1E1"/>
<path d="M10.3582 111.643C8.38456 110.625 6.06016 110.492 3.86896 110.855C2.69175 111.049 1.46495 111.401 0.663753 112.285C-0.137448 113.17 -0.289048 114.726 0.630553 115.486C1.17815 115.938 1.94175 116.007 2.65175 115.999C4.36696 115.979 6.27056 115.677 7.64096 116.709C8.42256 117.297 8.94296 118.276 9.87776 118.566C10.7922 118.849 11.8246 118.309 12.3094 117.484C12.7942 116.659 12.8106 115.627 12.5842 114.697C12.5842 114.697 12.3466 112.669 10.3582 111.643Z" fill="#ECECEC"/>
<path d="M14.8815 102.911C13.6747 104.635 11.3291 104.064 10.2411 103.012C9.15392 101.96 8.69392 100.435 8.27552 98.9811C7.31952 95.6583 6.35552 92.1727 7.06632 88.7891C7.27912 87.7779 7.65712 86.7691 8.36792 86.0187C9.07912 85.2683 10.1719 84.8215 11.1715 85.0859C12.3539 85.3983 13.0891 86.5563 13.6203 87.6583C15.1819 90.8975 16.0087 94.4883 16.0211 98.0847C16.0267 99.7639 15.8291 101.525 14.8815 102.911Z" fill="#ECECEC"/>
<path d="M18.1921 105.386C16.8817 103.831 16.6333 101.563 17.2161 99.6143C17.7993 97.6659 19.1169 96.0087 20.6345 94.6555C22.4149 93.0691 24.5073 91.8347 26.7565 91.0439C27.6417 90.7323 28.5753 90.4867 29.5093 90.5759C30.4437 90.6651 31.3842 91.1427 31.8202 91.9739C32.4642 93.2023 31.8466 94.6931 31.1786 95.9087C30.0014 98.0507 28.6557 100.1 27.1577 102.031C25.9525 103.585 24.5721 105.118 22.7353 105.82C20.8985 106.522 18.9909 106.439 18.0173 105.166" fill="#ECECEC"/>
<path d="M14.9593 128.912C14.9365 128.914 14.9001 128.634 14.8501 128.129C14.7945 127.559 14.7249 126.843 14.6421 125.991C14.5425 125.092 14.4109 124.021 14.1609 122.856C13.9121 121.693 13.5221 120.433 13.0217 119.155C12.5029 117.885 11.8709 116.73 11.1321 115.807C10.3981 114.879 9.54493 114.208 8.74293 113.821C7.94333 113.426 7.22653 113.266 6.73093 113.194C6.23133 113.143 5.95133 113.104 5.95093 113.082C5.95093 113.059 6.23133 113.055 6.74493 113.069C7.25333 113.103 8.00013 113.232 8.84253 113.615C9.68773 113.99 10.5929 114.672 11.3625 115.619C12.1385 116.561 12.7937 117.741 13.3213 119.034C13.8309 120.335 14.2149 121.608 14.4529 122.795C14.6901 123.981 14.7989 125.064 14.8697 125.97C14.9377 126.878 14.9633 127.613 14.9757 128.121C14.9869 128.629 14.9813 128.911 14.9593 128.912Z" fill="#E1E1E1"/>
<path d="M14.8165 127.273C14.8053 127.273 14.7985 127.148 14.7957 126.91C14.7965 126.637 14.7973 126.293 14.7985 125.87C14.8009 124.969 14.8001 123.663 14.7521 122.051C14.6721 118.828 14.3945 115.359 13.8585 110.467C13.3509 105.868 12.6697 100.516 11.9505 97.0359C11.7965 96.2447 11.6409 95.5319 11.4949 94.9087C11.3553 94.2835 11.2365 93.7447 11.1213 93.3087C11.0229 92.8983 10.9425 92.5639 10.8785 92.2983C10.8265 92.0663 10.8045 91.9431 10.8149 91.9399C10.8257 91.9367 10.8689 92.0539 10.9413 92.2807C11.0205 92.5423 11.1205 92.8719 11.2429 93.2767C11.3769 93.7087 11.5141 94.2439 11.6705 94.8663C11.8337 95.4875 12.0053 96.1983 12.1741 96.9883C12.8853 100.141 13.6389 104.549 14.1801 109.451C14.7173 114.353 14.9589 118.815 14.9805 122.047C14.9997 123.663 14.9653 124.971 14.9241 125.874C14.8985 126.296 14.8773 126.639 14.8605 126.913C14.8425 127.149 14.8277 127.274 14.8165 127.273Z" fill="#E1E1E1"/>
<path d="M14.7912 118.662C14.7688 118.661 14.7728 118.275 14.7988 117.576C14.8388 116.878 14.9348 115.87 15.1312 114.635C15.3396 113.403 15.6308 111.939 16.088 110.349C16.286 109.622 16.7516 107.881 17.88 105.278C19.3664 101.752 21.386 98.869 23.1428 97.0834C23.5548 96.6094 24.014 96.2678 24.3808 95.9326C24.5708 95.7718 24.7388 95.6118 24.9096 95.485C25.0816 95.3662 25.2416 95.2558 25.39 95.1534C25.9684 94.7582 26.292 94.5498 26.304 94.5686C26.356 94.639 25.0088 95.4318 23.308 97.241C21.614 99.047 19.6508 101.91 18.1768 105.406C17.3544 107.303 16.7812 108.995 16.3744 110.431C15.9044 112.005 15.5924 113.453 15.3564 114.674C15.1324 115.897 15.0024 116.895 14.9244 117.587C14.8596 118.279 14.8136 118.663 14.7912 118.662Z" fill="#E1E1E1"/>
<path d="M23.1141 133.844L22.2517 145.66L7.07184 145.66L6.20927 133.844L23.1141 133.844Z" fill="#E1E1E1"/>
<path d="M4.3995 129.193H24.5819V133.85H4.3995V129.193Z" fill="#E1E1E1"/>
<path d="M24.5821 145.214V146.505H4.73328V145.214H24.5821Z" fill="#ECECEC"/>
<path d="M22.6968 148.778L23.6264 146.506L5.44822 146.506L6.53303 148.778L22.6968 148.778Z" fill="#E1E1E1"/>
<path d="M6.49144 137.71C6.48784 137.713 6.51224 137.75 6.56224 137.818C6.62264 137.898 6.69704 137.998 6.78904 138.119C7.00464 138.395 7.30064 138.774 7.67344 139.251L7.71264 139.302L7.75064 139.249C8.30664 138.48 9.04904 137.453 9.92344 136.244H9.79824C10.4442 137.159 11.1642 138.178 11.937 139.272L12.0042 139.368L12.0794 139.278C12.8686 138.339 13.7258 137.319 14.6162 136.26L14.4698 136.258C14.5138 136.314 14.5614 136.374 14.609 136.434C15.3958 137.42 16.1574 138.374 16.8774 139.277L16.953 139.372L17.023 139.273C17.793 138.184 18.5126 137.166 19.163 136.246L19.0386 136.252C20.093 137.453 20.9874 138.472 21.6742 139.254L21.721 139.307L21.7566 139.248C22.1038 138.664 22.381 138.198 22.5818 137.861C22.6682 137.71 22.7378 137.589 22.7934 137.492C22.8402 137.407 22.8622 137.363 22.8582 137.36C22.8542 137.358 22.8242 137.398 22.7698 137.477C22.7082 137.57 22.631 137.688 22.5354 137.832C22.3246 138.164 22.0338 138.62 21.669 139.194L21.7514 139.187C21.0762 138.395 20.1962 137.364 19.1582 136.148L19.093 136.071L19.0338 136.153C18.3774 137.07 17.6514 138.083 16.8746 139.168L17.0198 139.164C16.3014 138.26 15.5418 137.304 14.757 136.316C14.7094 136.256 14.6614 136.196 14.6174 136.14L14.5454 136.05L14.4714 136.139C13.5834 137.2 12.7286 138.222 11.9414 139.163L12.0834 139.168C11.303 138.08 10.5758 137.066 9.92344 136.155L9.85984 136.067L9.79824 136.155C8.94264 137.377 8.21584 138.416 7.67144 139.192L7.74904 139.19C7.36104 138.725 7.05304 138.356 6.82904 138.087C6.72904 137.972 6.64784 137.878 6.58264 137.802C6.52584 137.738 6.49464 137.707 6.49144 137.71Z" fill="#F5F5F5"/>
<path d="M5.9967 133.773C5.9967 133.825 9.80031 133.867 14.4911 133.867C19.1843 133.867 22.9871 133.825 22.9871 133.773C22.9871 133.721 19.1843 133.679 14.4911 133.679C9.80031 133.679 5.9967 133.721 5.9967 133.773Z" fill="#F5F5F5"/>
<path d="M5.22766 146.627C5.22766 146.679 9.36126 146.721 14.4597 146.721C19.5593 146.721 23.6929 146.679 23.6929 146.627C23.6929 146.575 19.5593 146.533 14.4597 146.533C9.36126 146.533 5.22766 146.575 5.22766 146.627Z" fill="#F5F5F5"/>
<path d="M269.879 148.919C269.879 148.976 210.174 149.023 136.541 149.023C62.8814 149.023 3.18896 148.976 3.18896 148.919C3.18896 148.861 62.8814 148.814 136.541 148.814C210.174 148.814 269.879 148.861 269.879 148.919Z" fill="#1A2E35"/>
<path d="M219.158 127.037L223.871 149.147L217.828 149.147L207.706 126.666L219.158 127.037Z" fill="#E1E1E1"/>
<path d="M219.154 127.039C219.154 127.039 219.08 127.043 218.944 127.041C218.798 127.039 218.598 127.036 218.342 127.031C217.805 127.019 217.034 127.001 216.048 126.977C214.059 126.923 211.206 126.844 207.699 126.747L207.774 126.635C210.066 131.71 213.086 138.396 216.386 145.702C216.904 146.854 217.416 147.991 217.918 149.106L217.824 149.045C219.921 149.047 221.947 149.047 223.867 149.049L223.77 149.169C222.422 142.758 221.262 137.241 220.436 133.315C220.03 131.356 219.707 129.795 219.483 128.711C219.376 128.18 219.292 127.767 219.233 127.475C219.208 127.34 219.187 127.234 219.172 127.153C219.158 127.08 219.152 127.041 219.154 127.039C219.156 127.037 219.166 127.071 219.182 127.139C219.201 127.217 219.225 127.32 219.256 127.449C219.32 127.735 219.411 128.141 219.528 128.662C219.764 129.738 220.104 131.289 220.531 133.235C221.381 137.171 222.576 142.701 223.964 149.128L223.99 149.247H223.867C221.947 149.249 219.921 149.25 217.824 149.252H217.756L217.729 149.191C217.227 148.076 216.715 146.939 216.196 145.787C212.913 138.473 209.91 131.781 207.63 126.7L207.578 126.583L207.704 126.588C211.228 126.719 214.094 126.826 216.092 126.901C217.071 126.941 217.837 126.973 218.37 126.995C218.62 127.007 218.816 127.016 218.959 127.023C219.09 127.031 219.157 127.036 219.154 127.039Z" fill="#1A2E35"/>
<path d="M52.0785 127.04L47.3653 149.149L53.4093 149.149L63.5307 126.669L52.0785 127.04Z" fill="#E1E1E1"/>
<path d="M52.0772 127.039C52.0748 127.036 52.1408 127.031 52.2728 127.023C52.4156 127.016 52.6108 127.007 52.8616 126.995C53.394 126.973 54.16 126.941 55.1392 126.901C57.1372 126.826 60.004 126.719 63.5268 126.588L63.654 126.583L63.602 126.7C61.3216 131.781 58.318 138.473 55.0356 145.787C54.5164 146.939 54.0044 148.076 53.5024 149.191L53.4748 149.252H53.408C51.3104 149.25 49.2844 149.249 47.364 149.247H47.2412L47.2672 149.128C48.6552 142.701 49.85 137.171 50.7 133.235C51.1272 131.289 51.4676 129.738 51.7032 128.662C51.8204 128.141 51.9116 127.735 51.976 127.449C52.0064 127.32 52.0304 127.217 52.0488 127.139C52.0656 127.071 52.0752 127.037 52.0772 127.039C52.0788 127.041 52.0732 127.08 52.06 127.153C52.044 127.234 52.024 127.34 51.998 127.475C51.9392 127.767 51.8556 128.18 51.7484 128.711C51.5244 129.795 51.2012 131.356 50.7956 133.315C49.9696 137.241 48.8096 142.758 47.4612 149.169L47.364 149.049C49.2844 149.047 51.3104 149.047 53.408 149.045L53.3136 149.106C53.8152 147.991 54.3272 146.854 54.8456 145.702C58.1452 138.396 61.1652 131.71 63.4572 126.635L63.532 126.747C60.0256 126.844 57.172 126.923 55.1836 126.977C54.1972 127.001 53.426 127.019 52.89 127.031C52.6336 127.036 52.4336 127.039 52.2876 127.041C52.1512 127.043 52.0772 127.039 52.0772 127.039Z" fill="#1A2E35"/>
<path d="M53.0218 104.959H232.141V133.639H53.0218V104.959Z" fill="#375A64"/>
<path d="M140.169 82.0077V49.6913C140.169 47.3081 142.101 45.3761 144.484 45.3761H219.942C222.325 45.3761 224.257 47.3081 224.257 49.6913V94.5889L140.057 96.9861L140.169 82.0077Z" fill="#375A64"/>
<path d="M55.6915 94.5889V49.6913C55.6915 47.3081 57.6323 45.3761 60.0267 45.3761H135.832C138.226 45.3761 140.167 47.3081 140.167 49.6913L140.056 96.9861L55.6915 94.5889Z" fill="#375A64"/>
<path d="M243.283 133.33H223.932C222.125 133.33 220.66 131.411 220.66 129.043V77.9806C220.66 75.613 222.125 73.6934 223.985 73.6934H243.336C245.09 73.6934 246.555 75.613 246.555 77.9806V129.043C246.555 131.411 245.09 133.33 243.283 133.33Z" fill="#375A64"/>
<path d="M243.288 133.332C243.287 133.324 243.433 133.327 243.709 133.282C243.984 133.241 244.392 133.109 244.838 132.795C245.273 132.471 245.746 131.958 246.067 131.226C246.229 130.863 246.367 130.453 246.439 129.999C246.518 129.546 246.525 129.058 246.519 128.536C246.511 124.365 246.499 118.337 246.485 110.89C246.479 103.439 246.472 94.5685 246.463 84.7193C246.463 83.4881 246.462 82.2409 246.461 80.9801C246.461 80.3497 246.461 79.7157 246.461 79.0781C246.451 78.4401 246.492 77.7957 246.399 77.1725C246.309 76.5461 246.097 75.9349 245.775 75.3857C245.453 74.8413 244.998 74.3573 244.431 74.0701C244.152 73.9193 243.841 73.8353 243.526 73.8093C243.213 73.7837 242.869 73.8025 242.541 73.7969C241.877 73.7969 241.211 73.7973 240.541 73.7973C235.181 73.7989 229.633 73.8005 223.95 73.8021C223.265 73.8137 222.603 74.1109 222.108 74.5841C221.603 75.0505 221.255 75.6677 221.033 76.3157C220.813 76.9725 220.757 77.6569 220.769 78.3533V80.4369C220.768 83.2053 220.767 85.9333 220.767 88.6133C220.765 93.9737 220.763 99.1449 220.761 104.071C220.758 108.996 220.754 113.677 220.751 118.058C220.749 120.248 220.747 122.363 220.745 124.397C220.744 125.413 220.743 126.409 220.742 127.384C220.741 127.872 220.741 128.354 220.741 128.83C220.74 129.306 220.76 129.769 220.867 130.219C221.067 131.111 221.489 131.948 222.137 132.532C222.46 132.821 222.837 133.043 223.24 133.161C223.643 133.288 224.065 133.262 224.487 133.266C226.165 133.269 227.747 133.272 229.227 133.274C232.185 133.281 234.733 133.287 236.818 133.292C238.898 133.3 240.514 133.307 241.615 133.311C242.161 133.316 242.577 133.319 242.863 133.322C243.144 133.325 243.288 133.332 243.288 133.332C243.288 133.332 243.144 133.34 242.863 133.343C242.577 133.345 242.161 133.349 241.615 133.353C240.514 133.358 238.898 133.364 236.818 133.373C234.733 133.378 232.185 133.384 229.227 133.391C227.747 133.393 226.165 133.396 224.487 133.399C224.074 133.395 223.631 133.424 223.202 133.292C222.776 133.169 222.381 132.937 222.044 132.636C221.366 132.029 220.931 131.167 220.723 130.25C220.612 129.791 220.59 129.307 220.589 128.83C220.589 128.354 220.589 127.872 220.588 127.384C220.587 126.409 220.586 125.413 220.585 124.397C220.583 122.363 220.581 120.248 220.579 118.058C220.576 113.677 220.572 108.996 220.569 104.071C220.567 99.1449 220.565 93.9737 220.563 88.6133C220.563 85.9333 220.562 83.2053 220.561 80.4369V78.3533C220.548 77.6581 220.606 76.9285 220.835 76.2505C221.066 75.5741 221.43 74.9273 221.966 74.4317C222.491 73.9297 223.205 73.6057 223.947 73.5937C229.631 73.5937 235.18 73.5933 240.541 73.5933C241.211 73.5933 241.877 73.5937 242.541 73.5937C242.877 73.6001 243.197 73.5805 243.543 73.6073C243.884 73.6361 244.223 73.7285 244.523 73.8905C245.132 74.2001 245.61 74.7133 245.947 75.2833C246.283 75.8577 246.502 76.4937 246.596 77.1429C246.691 77.7981 246.648 78.4429 246.658 79.0781C246.658 79.7157 246.657 80.3497 246.657 80.9801C246.657 82.2409 246.656 83.4881 246.655 84.7193C246.647 94.5685 246.639 103.439 246.633 110.89C246.619 118.337 246.608 124.365 246.6 128.536C246.603 129.055 246.593 129.554 246.509 130.011C246.433 130.471 246.29 130.885 246.123 131.252C245.792 131.991 245.307 132.507 244.863 132.829C244.406 133.142 243.991 133.269 243.713 133.303C243.433 133.341 243.288 133.332 243.288 133.332Z" fill="#1A2E35"/>
<path d="M218.565 110.579H143.333C141.433 110.579 139.893 109.039 139.893 107.139V97.4489C139.893 95.5489 141.433 94.0089 143.333 94.0089H218.565C220.465 94.0089 222.005 95.5489 222.005 97.4489V107.139C222.005 109.039 220.465 110.579 218.565 110.579Z" fill="#375A64"/>
<path d="M218.573 110.578C218.573 110.568 218.742 110.575 219.064 110.526C219.383 110.479 219.866 110.36 220.401 110.019C220.929 109.682 221.514 109.09 221.802 108.206C221.956 107.766 221.988 107.27 221.97 106.731C221.968 106.194 221.966 105.622 221.964 105.017C221.961 103.805 221.957 102.459 221.953 100.986C221.951 100.249 221.949 99.4804 221.948 98.6808C221.921 97.8844 222.043 97.0324 221.717 96.2448C221.418 95.4588 220.793 94.7632 219.973 94.3908C219.153 93.9776 218.181 94.1072 217.208 94.088C215.257 94.0908 213.195 94.094 211.03 94.0972C193.702 94.1068 169.773 94.1196 143.345 94.1344C142.548 94.136 141.761 94.4308 141.165 94.9528C140.565 95.4696 140.165 96.2072 140.063 96.9872C140.011 97.3708 140.032 97.7832 140.027 98.1896L140.027 99.4072V101.83C140.027 103.439 140.026 105.037 140.026 106.622C140.03 107.022 140.01 107.408 140.089 107.78C140.165 108.152 140.303 108.511 140.497 108.836C140.881 109.489 141.498 109.997 142.205 110.25C142.906 110.532 143.688 110.437 144.464 110.454C145.235 110.455 146.004 110.455 146.769 110.455C148.299 110.456 149.813 110.456 151.312 110.457C154.31 110.458 157.245 110.46 160.108 110.461C171.56 110.471 181.874 110.481 190.537 110.488C199.195 110.505 206.202 110.52 211.051 110.529C213.469 110.539 215.348 110.547 216.629 110.553C217.262 110.558 217.747 110.562 218.079 110.565C218.406 110.57 218.573 110.578 218.573 110.578C218.573 110.578 218.406 110.587 218.079 110.591C217.747 110.594 217.262 110.598 216.629 110.604C215.348 110.609 213.469 110.617 211.051 110.628C206.202 110.637 199.195 110.651 190.537 110.668C181.874 110.676 171.56 110.685 160.108 110.695C157.245 110.696 154.31 110.698 151.312 110.699C149.813 110.7 148.299 110.7 146.769 110.701C146.004 110.701 145.235 110.702 144.464 110.702C144.077 110.701 143.69 110.701 143.301 110.7C142.899 110.698 142.499 110.62 142.119 110.483C141.359 110.211 140.696 109.666 140.283 108.964C140.074 108.614 139.925 108.229 139.843 107.828C139.758 107.423 139.779 107.012 139.775 106.622C139.775 105.037 139.775 103.439 139.775 101.83C139.774 101.025 139.774 100.218 139.774 99.4072V98.1896C139.779 97.7844 139.756 97.378 139.812 96.9524C139.921 96.1124 140.353 95.3176 140.999 94.762C141.639 94.2 142.488 93.8816 143.345 93.8808C169.773 93.8952 193.702 93.9084 211.03 93.918C213.195 93.9208 215.257 93.924 217.208 93.9268C217.697 93.9292 218.178 93.9312 218.652 93.9332C219.136 93.944 219.61 94.056 220.036 94.2528C220.892 94.6452 221.541 95.3732 221.85 96.194C222.007 96.6036 222.081 97.036 222.082 97.4584C222.081 97.8736 222.08 98.2812 222.079 98.6808C222.077 99.4804 222.076 100.249 222.074 100.986C222.07 102.459 222.066 103.805 222.063 105.017C222.061 105.622 222.059 106.194 222.057 106.731C222.071 107.264 222.035 107.785 221.874 108.23C221.571 109.131 220.969 109.727 220.429 110.062C219.881 110.401 219.39 110.512 219.067 110.552C218.742 110.593 218.573 110.578 218.573 110.578Z" fill="#1A2E35"/>
<path d="M52.5697 133.642H33.2181C31.4113 133.642 29.9469 131.722 29.9469 129.355V78.2919C29.9469 75.9243 31.4113 74.0047 33.2713 74.0047H52.6229C54.3765 74.0047 55.8409 75.9243 55.8409 78.2919V129.355C55.8409 131.722 54.3765 133.642 52.5697 133.642Z" fill="#375A64"/>
<path d="M52.5655 133.644C52.5651 133.635 52.7107 133.639 52.9863 133.593C53.2619 133.552 53.6695 133.42 54.1159 133.107C54.5499 132.783 55.0231 132.269 55.3443 131.537C55.5059 131.174 55.6447 130.764 55.7163 130.311C55.7959 129.857 55.8031 129.369 55.7963 128.847C55.7887 124.676 55.7771 118.649 55.7631 111.202C55.7571 103.75 55.7491 94.8797 55.7407 85.0305C55.7403 83.7993 55.7399 82.5525 55.7391 81.2913C55.7387 80.6609 55.7387 80.0269 55.7383 79.3893C55.7283 78.7513 55.7691 78.1069 55.6767 77.4837C55.5859 76.8573 55.3743 76.2461 55.0531 75.6969C54.7303 75.1525 54.2755 74.6685 53.7091 74.3813C53.4299 74.2305 53.1179 74.1465 52.8039 74.1205C52.4907 74.0953 52.1471 74.1137 51.8191 74.1081C51.1551 74.1081 50.4883 74.1085 49.8183 74.1085C44.4591 74.1101 38.9107 74.1117 33.2279 74.1133C32.5427 74.1249 31.8807 74.4221 31.3859 74.8953C30.8807 75.3617 30.5323 75.9789 30.3107 76.6269C30.0903 77.2837 30.0343 77.9681 30.0467 78.6645C30.0463 79.3613 30.0463 80.0561 30.0463 80.7481C30.0459 83.5165 30.0451 86.2445 30.0447 88.9245C30.0427 94.2853 30.0403 99.4561 30.0387 104.382C30.0351 109.308 30.0323 113.988 30.0291 118.369C30.0271 120.559 30.0247 122.675 30.0231 124.708C30.0219 125.725 30.0207 126.721 30.0199 127.695C30.0191 128.183 30.0187 128.665 30.0179 129.141C30.0175 129.617 30.0375 130.081 30.1447 130.53C30.3443 131.422 30.7663 132.26 31.4151 132.843C31.7375 133.133 32.1143 133.355 32.5179 133.472C32.9207 133.599 33.3431 133.573 33.7651 133.577C35.4427 133.58 37.0247 133.583 38.5047 133.585C41.4627 133.592 44.0111 133.598 46.0959 133.603C48.1755 133.611 49.7915 133.618 50.8931 133.623C51.4379 133.627 51.8547 133.631 52.1407 133.633C52.4215 133.636 52.5655 133.644 52.5655 133.644C52.5655 133.644 52.4215 133.651 52.1407 133.654C51.8547 133.657 51.4379 133.66 50.8931 133.665C49.7915 133.669 48.1755 133.676 46.0959 133.684C44.0111 133.689 41.4627 133.695 38.5047 133.702C37.0247 133.704 35.4427 133.707 33.7651 133.71C33.3515 133.707 32.9083 133.735 32.4799 133.603C32.0539 133.481 31.6583 133.248 31.3215 132.947C30.6443 132.341 30.2087 131.478 30.0007 130.561C29.8899 130.102 29.8675 129.618 29.8671 129.141C29.8667 128.665 29.8659 128.183 29.8655 127.695C29.8647 126.721 29.8635 125.725 29.8623 124.708C29.8603 122.675 29.8583 120.559 29.8563 118.369C29.8531 113.988 29.8499 109.308 29.8467 104.382C29.8447 99.4561 29.8427 94.2853 29.8403 88.9245C29.8403 86.2445 29.8395 83.5165 29.8391 80.7481C29.8391 80.0561 29.8391 79.3613 29.8387 78.6645C29.8259 77.9693 29.8831 77.2397 30.1131 76.5617C30.3439 75.8857 30.7075 75.2385 31.2439 74.7429C31.7683 74.2409 32.4831 73.9169 33.2247 73.9049C38.9087 73.9049 44.4583 73.9045 49.8183 73.9045C50.4883 73.9045 51.1551 73.9049 51.8191 73.9049C52.1543 73.9113 52.4743 73.8917 52.8203 73.9189C53.1623 73.9473 53.5007 74.0397 53.8007 74.2017C54.4099 74.5113 54.8875 75.0249 55.2251 75.5945C55.5611 76.1689 55.7799 76.8049 55.8735 77.4545C55.9691 78.1093 55.9259 78.7541 55.9355 79.3893C55.9351 80.0269 55.9351 80.6609 55.9347 81.2913C55.9339 82.5525 55.9335 83.7993 55.9327 85.0305C55.9243 94.8797 55.9167 103.75 55.9103 111.202C55.8967 118.649 55.8851 124.676 55.8775 128.847C55.8811 129.367 55.8707 129.865 55.7867 130.323C55.7111 130.782 55.5675 131.197 55.4007 131.563C55.0691 132.302 54.5843 132.818 54.1403 133.141C53.6835 133.453 53.2687 133.58 52.9899 133.615C52.7107 133.653 52.5655 133.644 52.5655 133.644Z" fill="#1A2E35"/>
<path d="M136.453 110.758H56.5868C54.6868 110.758 53.1464 109.217 53.1464 107.317V97.2571C53.1464 95.3571 54.6868 93.8167 56.5868 93.8167H136.453C138.353 93.8167 139.894 95.3571 139.894 97.2571V107.317C139.894 109.217 138.353 110.758 136.453 110.758Z" fill="#375A64"/>
<path d="M136.452 110.765C136.451 110.753 136.63 110.764 136.968 110.709C137.303 110.656 137.81 110.523 138.366 110.152C138.906 109.776 139.501 109.128 139.743 108.178C139.874 107.708 139.849 107.18 139.849 106.614C139.847 106.049 139.845 105.448 139.843 104.81C139.84 103.536 139.836 102.119 139.832 100.569C139.83 99.7928 139.828 98.9844 139.827 98.1428C139.82 97.724 139.841 97.2884 139.798 96.866C139.749 96.4408 139.615 96.0176 139.398 95.6308C138.969 94.856 138.197 94.2336 137.277 94.0064C136.819 93.8824 136.333 93.9028 135.832 93.9028C135.333 93.9036 134.827 93.9044 134.314 93.9052C132.261 93.9076 130.091 93.9108 127.813 93.914C109.58 93.9232 84.4006 93.9368 56.5905 93.9512C55.7509 93.9496 54.9225 94.2792 54.3181 94.8532C53.7093 95.422 53.3325 96.224 53.2833 97.0504C53.2613 98.7508 53.2769 100.469 53.2717 102.158C53.2713 103.852 53.2713 105.533 53.2709 107.2C53.2525 108.013 53.5133 108.812 54.0249 109.43C54.5321 110.046 55.2637 110.466 56.0433 110.592C56.4281 110.66 56.8365 110.636 57.2473 110.641H58.4685C59.2809 110.641 60.0897 110.642 60.8941 110.642C62.5037 110.642 64.0977 110.643 65.6749 110.644C68.8294 110.645 71.9174 110.646 74.9306 110.648C86.9818 110.658 97.8346 110.667 106.951 110.675C116.061 110.692 123.435 110.706 128.537 110.715C131.082 110.726 133.059 110.734 134.406 110.739C135.073 110.744 135.583 110.749 135.932 110.752C136.276 110.756 136.452 110.765 136.452 110.765C136.452 110.765 136.276 110.773 135.932 110.778C135.583 110.78 135.073 110.785 134.406 110.79C133.059 110.796 131.082 110.804 128.537 110.814C123.435 110.824 116.061 110.838 106.951 110.854C97.8346 110.862 86.9818 110.872 74.9306 110.882C71.9174 110.883 68.8294 110.884 65.6749 110.886C64.0977 110.886 62.5037 110.887 60.8941 110.888C60.0897 110.888 59.2809 110.888 58.4685 110.888C58.0621 110.888 57.6553 110.889 57.2473 110.889C56.8433 110.884 56.4277 110.911 56.0029 110.838C55.1641 110.702 54.3773 110.251 53.8321 109.589C53.2821 108.93 52.9997 108.055 53.0201 107.2C53.0197 105.533 53.0197 103.852 53.0193 102.158C53.0245 100.461 53.0077 98.7668 53.0305 97.034C53.0833 96.1448 53.4893 95.28 54.1441 94.6684C54.7941 94.0512 55.6881 93.6952 56.5905 93.6976C84.4006 93.712 109.58 93.7248 127.813 93.7348C130.091 93.738 132.261 93.7404 134.314 93.7436C134.827 93.7444 135.333 93.7452 135.832 93.746C136.324 93.748 136.833 93.7276 137.314 93.8588C138.276 94.1 139.078 94.7528 139.522 95.562C139.746 95.966 139.884 96.4072 139.934 96.85C139.977 97.2972 139.953 97.7216 139.958 98.1428C139.956 98.9844 139.955 99.7928 139.953 100.569C139.949 102.119 139.945 103.536 139.942 104.81C139.94 105.448 139.938 106.049 139.936 106.614C139.933 107.175 139.954 107.716 139.815 108.197C139.56 109.166 138.947 109.82 138.395 110.194C137.826 110.564 137.311 110.689 136.972 110.734C136.802 110.764 136.671 110.761 136.583 110.765C136.496 110.767 136.452 110.765 136.452 110.765Z" fill="#1A2E35"/>
<path d="M140.169 49.3221C140.239 49.3221 140.295 59.6621 140.295 72.4137C140.295 85.1701 140.239 95.5077 140.169 95.5077C140.099 95.5077 140.042 85.1701 140.042 72.4137C140.042 59.6621 140.099 49.3221 140.169 49.3221Z" fill="#1A2E35"/>
<path d="M183.272 63.9394C183.291 63.957 183.197 64.0478 183.099 64.2478C182.999 64.4458 182.917 64.7674 182.969 65.1578C183.025 65.5378 183.23 66.0074 183.663 66.2654C184.088 66.5362 184.719 66.4538 185.179 66.0882C185.641 65.7266 185.867 65.131 185.702 64.6542C185.551 64.1734 185.142 63.8654 184.785 63.723C184.417 63.5822 184.085 63.5878 183.87 63.639C183.653 63.6878 183.543 63.7578 183.53 63.7358C183.524 63.729 183.617 63.6278 183.843 63.5442C184.065 63.459 184.431 63.421 184.847 63.5542C185.247 63.6906 185.727 64.0106 185.925 64.583C186.019 64.8638 186.026 65.1974 185.911 65.4994C185.801 65.8026 185.597 66.0766 185.335 66.2874C185.07 66.4934 184.757 66.6278 184.436 66.6642C184.115 66.7058 183.793 66.6218 183.542 66.4654C183.031 66.1402 182.831 65.5994 182.791 65.1782C182.757 64.7438 182.879 64.3966 183.013 64.1994C183.147 63.9986 183.267 63.9318 183.272 63.9394Z" fill="#1A2E35"/>
<path d="M190.919 57.9179C190.922 57.9623 190.407 57.9735 189.624 58.1963C188.845 58.4131 187.796 58.8919 186.911 59.7571C186.027 60.6235 185.525 61.6623 185.292 62.4359C185.052 63.2143 185.029 63.7287 184.985 63.7251C184.969 63.7243 184.958 63.5955 184.967 63.3627C184.977 63.1299 185.018 62.7935 185.119 62.3871C185.314 61.5795 185.809 60.4807 186.734 59.5759C187.658 58.6719 188.767 58.2003 189.579 58.0227C189.987 57.9307 190.325 57.8967 190.558 57.8923C190.791 57.8875 190.919 57.9019 190.919 57.9179Z" fill="#1A2E35"/>
<path d="M173.219 66.4454C173.207 66.4358 173.287 66.3114 173.46 66.1078C173.631 65.9038 173.905 65.6286 174.282 65.3342C175.028 64.7446 176.259 64.1122 177.734 63.991C179.21 63.871 180.527 64.2954 181.359 64.7562C181.779 64.9858 182.094 65.213 182.296 65.3862C182.499 65.5586 182.598 65.6686 182.588 65.6802C182.56 65.7174 182.118 65.323 181.277 64.9162C180.446 64.5074 179.172 64.129 177.755 64.2438C176.338 64.3602 175.142 64.9402 174.389 65.4786C173.625 66.017 173.254 66.4774 173.219 66.4454Z" fill="#1A2E35"/>
<path d="M185.128 70.6314C185.1 70.6502 184.9 70.435 184.621 70.0474C184.352 69.6614 183.976 69.0778 183.873 68.3214C183.778 67.5518 184.106 66.8678 184.48 66.5394C184.864 66.1982 185.207 66.2094 185.202 66.2326C185.217 66.2766 184.912 66.333 184.607 66.6662C184.305 66.9878 184.04 67.6094 184.125 68.2894C184.216 68.975 184.543 69.5458 184.772 69.9506C185.008 70.3562 185.158 70.6102 185.128 70.6314Z" fill="#1A2E35"/>
<path d="M97.4691 63.9394C97.4875 63.957 97.3943 64.0478 97.2963 64.2478C97.1963 64.4458 97.1143 64.7674 97.1659 65.1578C97.2223 65.5378 97.4267 66.0074 97.8599 66.2654C98.2851 66.5362 98.9167 66.4538 99.3755 66.0882C99.8379 65.7266 100.064 65.131 99.8995 64.6542C99.7483 64.1734 99.3391 63.8654 98.9823 63.723C98.6147 63.5822 98.2823 63.5878 98.0675 63.639C97.8499 63.6878 97.7399 63.7578 97.7271 63.7358C97.7211 63.729 97.8139 63.6278 98.0399 63.5442C98.2627 63.459 98.6287 63.421 99.0435 63.5542C99.4443 63.6906 99.9239 64.0106 100.122 64.583C100.216 64.8638 100.223 65.1974 100.108 65.4994C99.9983 65.8026 99.7947 66.0766 99.5327 66.2874C99.2667 66.4934 98.9535 66.6278 98.6331 66.6642C98.3127 66.7058 97.9899 66.6218 97.7387 66.4654C97.2275 66.1402 97.0275 65.5994 96.9875 65.1782C96.9539 64.7438 97.0755 64.3966 97.2103 64.1994C97.3439 63.9986 97.4639 63.9318 97.4691 63.9394Z" fill="#1A2E35"/>
<path d="M105.116 57.9179C105.119 57.9623 104.604 57.9735 103.82 58.1963C103.042 58.4131 101.992 58.8919 101.108 59.7571C100.224 60.6235 99.7221 61.6623 99.4885 62.4359C99.2489 63.2143 99.2265 63.7287 99.1821 63.7251C99.1661 63.7243 99.1545 63.5955 99.1645 63.3627C99.1741 63.1299 99.2153 62.7935 99.3161 62.3871C99.5109 61.5795 100.006 60.4807 100.93 59.5759C101.855 58.6719 102.964 58.2003 103.776 58.0227C104.184 57.9307 104.522 57.8967 104.754 57.8923C104.987 57.8875 105.116 57.9019 105.116 57.9179Z" fill="#1A2E35"/>
<path d="M87.4157 66.4454C87.4037 66.4358 87.4837 66.3114 87.6561 66.1078C87.8277 65.9038 88.1017 65.6286 88.4793 65.3342C89.2245 64.7446 90.4553 64.1122 91.9309 63.991C93.4069 63.871 94.7241 64.2954 95.5553 64.7562C95.9753 64.9858 96.2905 65.213 96.4929 65.3862C96.6961 65.5586 96.7949 65.6686 96.7849 65.6802C96.7561 65.7174 96.3149 65.323 95.4737 64.9162C94.6429 64.5074 93.3681 64.129 91.9513 64.2438C90.5353 64.3602 89.3389 64.9402 88.5857 65.4786C87.8217 66.017 87.4501 66.4774 87.4157 66.4454Z" fill="#1A2E35"/>
<path d="M99.324 70.6314C99.2968 70.6502 99.0968 70.435 98.8176 70.0474C98.5476 69.6614 98.1724 69.0778 98.0696 68.3214C97.9744 67.5518 98.3028 66.8678 98.6768 66.5394C99.06 66.1982 99.404 66.2094 99.3984 66.2326C99.4132 66.2766 99.108 66.333 98.8032 66.6662C98.5016 66.9878 98.2364 67.6094 98.3212 68.2894C98.4128 68.975 98.7396 69.5458 98.9684 69.9506C99.2048 70.3562 99.3544 70.6102 99.324 70.6314Z" fill="#1A2E35"/>
<path d="M135.292 13.6111C134.417 12.6015 133.347 11.6391 133.076 10.3307C132.827 9.12753 133.298 7.77673 132.706 6.70033C131.977 5.37553 130.043 5.19633 129.154 3.97393C128.723 3.38233 128.593 2.61353 128.168 2.01833C127.442 1.00272 126.034 0.728325 124.793 0.855525C123.552 0.982326 122.355 1.42313 121.11 1.50433C119.402 1.61633 117.643 1.05192 116.001 1.53513C114.19 2.06833 113.076 3.66433 111.894 5.20913L110.352 6.99953C110.033 7.30553 109.696 7.58713 109.326 7.82433C108.678 8.23913 107.939 8.52433 107.382 9.05353C106.19 10.1867 106.28 12.3775 107.562 13.4087C106.245 13.8223 105.296 15.1911 105.37 16.5687C105.411 17.3271 105.722 18.0395 105.946 18.7647C106.17 19.4899 106.304 20.2971 105.998 20.9923C105.693 21.6871 104.801 22.1607 104.141 21.7851C104.37 22.7687 105.07 23.6311 105.986 24.0579C105.628 24.4231 105.127 24.6431 104.616 24.6599C105.989 27.9176 109.75 29.6404 113.284 29.6708C116.819 29.7008 120.206 28.3716 123.49 27.0628L133.015 24.6183C133.851 24.4295 134.202 23.4151 134.193 22.5579C134.184 21.7003 133.969 20.8079 134.278 20.0079C134.701 18.9111 135.979 18.3323 136.421 17.2431C136.924 16.0051 136.168 14.6207 135.292 13.6111Z" fill="#1A2E35"/>
<path d="M112.746 22.227C112.063 20.0742 111.389 17.9054 111.087 15.6674C110.784 13.4294 110.869 11.0994 111.67 8.98777C111.792 8.66817 112.824 6.52216 113.164 6.55816C113.407 6.58416 112.767 8.58777 112.889 8.80017C114.049 10.8266 114.352 13.2558 114.148 15.5818C113.944 17.9082 113.445 19.9986 112.746 22.227Z" fill="#1A2E35"/>
<path d="M112.582 13.6048C112.438 7.94283 115.613 3.13923 121.277 3.15203L121.8 3.18363C127.067 3.50363 131.208 7.81243 131.313 13.088C131.41 17.996 131.455 23.4208 131.264 26.0392C130.867 31.4597 125.39 31.9741 125.39 31.9741C125.378 31.9741 125.525 40.8933 125.525 40.8933L112.564 38.1805L112.582 13.6048Z" fill="#D96D68"/>
<path d="M125.396 31.981C125.396 31.981 121.965 31.9742 118.46 29.4642C118.46 29.4642 119.976 33.9758 125.419 33.8154L125.396 31.981Z" fill="#A64C47"/>
<path d="M129.46 17.6997C129.45 18.1096 129.094 18.4388 128.666 18.436C128.238 18.4327 127.9 18.0992 127.91 17.6893C127.92 17.2793 128.276 16.9493 128.703 16.9522C129.132 16.9555 129.471 17.2901 129.46 17.6997Z" fill="#1A2E35"/>
<path d="M130.015 15.2682C129.913 15.3634 129.353 14.8934 128.519 14.845C127.687 14.7846 127.049 15.1766 126.965 15.0686C126.923 15.021 127.032 14.8446 127.31 14.6666C127.584 14.4898 128.042 14.3286 128.562 14.3626C129.081 14.397 129.506 14.6146 129.745 14.8254C129.99 15.0378 130.065 15.2258 130.015 15.2682Z" fill="#1A2E35"/>
<path d="M122.347 17.681C122.336 18.0913 121.981 18.4205 121.553 18.4175C121.125 18.4145 120.786 18.0809 120.797 17.6702C120.807 17.2607 121.163 16.9307 121.59 16.9337C122.019 16.9367 122.357 17.2711 122.347 17.681Z" fill="#1A2E35"/>
<path d="M121.831 15.1125C121.729 15.2077 121.167 14.7377 120.334 14.6893C119.502 14.6293 118.864 15.0209 118.78 14.9133C118.739 14.8653 118.846 14.6889 119.125 14.5117C119.399 14.3341 119.858 14.1733 120.377 14.2069C120.896 14.2413 121.321 14.4593 121.561 14.6701C121.805 14.8821 121.881 15.0705 121.831 15.1125Z" fill="#1A2E35"/>
<path d="M124.438 21.7025C124.438 21.6549 124.961 21.5965 125.807 21.5401C126.022 21.5313 126.226 21.5013 126.27 21.3581C126.33 21.2073 126.254 20.9725 126.166 20.7185C125.997 20.1913 125.821 19.6385 125.635 19.0593C124.901 16.6985 124.383 14.7621 124.478 14.7337C124.574 14.7049 125.246 16.5949 125.98 18.9561C126.156 19.5377 126.325 20.0925 126.485 20.6233C126.55 20.8701 126.672 21.1529 126.544 21.4653C126.478 21.6209 126.314 21.7269 126.176 21.7553C126.037 21.7889 125.916 21.7841 125.811 21.7837C124.963 21.7777 124.439 21.7501 124.438 21.7025Z" fill="#1A2E35"/>
<path d="M121.949 22.1311C122.085 22.1315 122.032 23.0367 122.767 23.7259C123.501 24.4171 124.472 24.3739 124.471 24.5007C124.481 24.5583 124.246 24.6639 123.838 24.6499C123.438 24.6395 122.863 24.4755 122.412 24.0543C121.964 23.6315 121.793 23.0939 121.784 22.7207C121.773 22.3403 121.887 22.1223 121.949 22.1311Z" fill="#1A2E35"/>
<path d="M121.994 11.7269C121.898 11.9489 121.072 11.7905 120.087 11.8493C119.1 11.8881 118.294 12.1265 118.177 11.9153C118.125 11.8145 118.276 11.6097 118.608 11.4097C118.937 11.2097 119.454 11.0321 120.045 11.0021C120.636 10.9737 121.168 11.0997 121.516 11.2661C121.866 11.4325 122.036 11.6217 121.994 11.7269Z" fill="#1A2E35"/>
<path d="M129.841 12.4756C129.683 12.656 129.12 12.4244 128.43 12.3736C127.742 12.298 127.147 12.4236 127.025 12.2172C126.971 12.1172 127.075 11.9336 127.341 11.7696C127.604 11.6064 128.034 11.4856 128.508 11.5288C128.981 11.5728 129.382 11.7692 129.611 11.978C129.843 12.1872 129.911 12.3872 129.841 12.4756Z" fill="#1A2E35"/>
<path d="M112.781 17.6481C112.691 17.6025 109.121 16.3192 109.014 20.0353C108.908 23.7513 112.66 23.0917 112.67 22.9853C112.679 22.8789 112.781 17.6481 112.781 17.6481Z" fill="#D96D68"/>
<path d="M111.575 21.5479C111.559 21.5359 111.508 21.5911 111.398 21.6383C111.29 21.6843 111.106 21.7127 110.914 21.6343C110.525 21.4791 110.213 20.8467 110.214 20.1763C110.214 19.8379 110.294 19.5179 110.422 19.2547C110.543 18.9859 110.724 18.8011 110.923 18.7715C111.121 18.7319 111.257 18.8543 111.3 18.9599C111.346 19.0651 111.321 19.1391 111.34 19.1459C111.35 19.1555 111.422 19.0859 111.396 18.9315C111.383 18.8571 111.342 18.7683 111.257 18.6943C111.17 18.6195 111.04 18.5787 110.902 18.5895C110.614 18.6011 110.349 18.8575 110.209 19.1463C110.053 19.4363 109.955 19.7955 109.955 20.1755C109.957 20.9251 110.32 21.6367 110.853 21.8075C111.112 21.8831 111.333 21.8107 111.448 21.7259C111.566 21.6375 111.588 21.5551 111.575 21.5479Z" fill="#A64C47"/>
<path d="M129.029 6.88374C129.637 6.56374 127.87 4.58014 126.406 3.88014C124.192 2.82214 120.792 2.13014 118.721 2.67334C116.227 3.32734 114.142 4.52054 112.852 6.75294C111.562 8.98534 111.042 11.6061 111.063 14.1845C111.07 14.9713 111.135 15.7921 111.542 16.4657C112.044 17.2977 113.03 17.8349 112.964 18.9673C112.94 19.3817 113.05 19.8021 113.328 20.1097C113.993 20.8469 114.839 20.1837 115.235 19.5097C116.08 18.0701 116.206 16.3337 116.311 14.6677C116.386 13.4833 116.458 12.2733 116.146 11.1281C115.977 10.5053 115.696 9.91414 115.562 9.28254C115.427 8.65094 115.46 7.93774 115.862 7.43214C115.927 7.35014 116.034 7.24654 116.17 7.13294C117.24 6.23134 118.719 5.98414 120.029 6.47694C122.108 7.25894 125.66 8.43574 126.608 7.74414C127.971 6.74894 128.305 6.08894 128.305 6.08894L129.029 6.88374Z" fill="#1A2E35"/>
<path d="M118.926 2.17906C120.982 1.53666 123.306 1.61866 125.198 2.64826C126.202 3.19466 127.102 4.05386 127.39 5.16066C127.677 6.26706 127.181 7.61226 126.113 8.02226L126.04 8.06666C124.443 8.56906 123.417 8.33626 121.847 7.75746C120.526 7.27066 119.359 6.42626 118.035 5.94546C116.628 5.43466 115.067 5.35826 113.617 5.72906C115.07 4.13986 116.87 2.82146 118.926 2.17906Z" fill="#1A2E35"/>
<path d="M116.27 13.5249L111.114 15.9893C111.114 15.9893 109.68 16.8377 109.776 17.8349C109.776 17.8349 110.429 17.5089 111.682 17.5089C112.305 17.5089 112.871 17.9545 112.945 18.5729L112.946 18.5897L116.178 19.0037L116.27 13.5249Z" fill="#E1E1E1"/>
<path d="M131.512 17.7141C131.512 17.9829 131.294 18.2009 131.026 18.2009H127.335C127.066 18.2009 126.848 17.9829 126.848 17.7141V15.0765C126.848 14.8077 127.066 14.5897 127.335 14.5897H131.026C131.294 14.5897 131.512 14.8077 131.512 15.0765V17.7141ZM122.753 17.7141C122.753 17.9829 122.535 18.2009 122.266 18.2009H117.992C117.724 18.2009 117.506 17.9829 117.506 17.7141V15.0765C117.506 14.8077 117.724 14.5897 117.992 14.5897H122.266C122.535 14.5897 122.753 14.8077 122.753 15.0765V17.7141ZM116.27 13.5249C116.234 13.7105 116.18 19.0037 116.18 19.0037L123.215 19.0965C123.215 19.0965 124.407 16.6793 124.835 16.6537C125.477 16.6149 126.48 18.9181 126.48 18.9181C126.979 18.9181 132.424 18.9413 132.424 18.9413V13.6805L116.27 13.5249Z" fill="#E1E1E1"/>
<path d="M122.241 18.1977H118.022C117.738 18.1977 117.508 17.9677 117.508 17.6841V15.1001C117.508 14.8165 117.738 14.5869 118.022 14.5869H122.241C122.525 14.5869 122.755 14.8165 122.755 15.1001V17.6841C122.755 17.9677 122.525 18.1977 122.241 18.1977Z" fill="#375A64"/>
<path d="M130.997 18.1977H127.36C127.076 18.1977 126.846 17.9677 126.846 17.6841V15.1001C126.846 14.8165 127.076 14.5869 127.36 14.5869H130.997C131.28 14.5869 131.51 14.8165 131.51 15.1001V17.6841C131.51 17.9677 131.28 18.1977 130.997 18.1977Z" fill="#FF735D"/>
<path d="M116.303 19.0498C116.246 19.0498 116.199 17.827 116.199 16.3194C116.199 14.8114 116.246 13.589 116.303 13.589C116.361 13.589 116.407 14.8114 116.407 16.3194C116.407 17.827 116.361 19.0498 116.303 19.0498Z" fill="#1A2E35"/>
<path d="M122.169 15.1808C122.209 15.2217 121.581 15.8992 120.767 16.6934C119.953 17.4882 119.26 18.0986 119.221 18.0574C119.18 18.0165 119.808 17.339 120.622 16.5448C121.436 15.7506 122.128 15.1396 122.169 15.1808Z" fill="white"/>
<path d="M121.189 14.9877C121.229 15.0295 120.758 15.5467 120.138 16.1439C119.518 16.7408 118.982 17.1911 118.943 17.1499C118.903 17.1084 119.373 16.5907 119.994 15.9938C120.614 15.3968 121.149 14.9462 121.189 14.9877Z" fill="white"/>
<path d="M129.286 15.8726C129.329 15.911 129.029 16.3169 128.615 16.7788C128.202 17.2412 127.832 17.5848 127.789 17.5469C127.746 17.5085 128.046 17.1026 128.46 16.6401C128.874 16.178 129.244 15.8339 129.286 15.8726Z" fill="white"/>
<path d="M130.757 14.9432C130.804 14.972 130.424 15.6561 129.806 16.392C129.19 17.1302 128.583 17.6239 128.546 17.5832C128.506 17.5393 129.04 16.985 129.646 16.2579C130.255 15.534 130.707 14.9105 130.757 14.9432Z" fill="white"/>
<path d="M149.778 38.6012C149.778 38.6012 167.192 40.3564 169.376 39.6676C171.56 38.9788 188.148 39.9736 188.148 39.9736L188.733 45.464L148.114 47.9956L149.778 38.6012Z" fill="#D96D68"/>
<path d="M187.923 39.9653C187.923 39.9653 190.289 40.1545 191.016 40.3101C191.743 40.4657 203.404 42.8457 204.027 43.2073C204.65 43.5689 210.154 45.2825 210.154 45.2825C210.154 45.2825 210.206 46.1133 209.531 46.2173C208.856 46.3213 206.364 45.5421 206.364 45.5421L208.856 47.4117C208.856 47.4117 208.025 47.9309 206.675 47.7749C205.325 47.6193 201.119 45.3345 201.119 45.3345L197.173 45.4905C197.173 45.4905 200.808 47.5425 200.86 48.3857C200.912 49.2289 200.03 49.8521 199.302 49.5925C198.575 49.3329 195.667 47.9309 195.667 47.9309C195.667 47.9309 190.994 46.4769 190.163 45.5421L187.152 45.5313L187.923 39.9653Z" fill="#D96D68"/>
<path d="M134.237 35.1807C134.237 35.1807 135.579 35.0579 140.757 36.2583C145.936 37.4587 150.736 37.7555 150.736 37.7555L151.058 48.7343C151.058 48.7343 134.952 48.8911 133.109 52.4987L134.237 35.1807Z" fill="#FF735D"/>
<g opacity="0.3">
<g opacity="0.3">
<path opacity="0.3" d="M137.407 50.1908C137.407 50.1908 137.058 42.7112 139.087 39.8816C140.918 37.3268 142.611 36.706 142.611 36.706L145.841 37.5488L143.6 41.5696L142.599 49.284L137.407 50.1908Z" fill="black"/>
</g>
</g>
<path d="M100.011 35.1823V49.0279L92.5507 65.7407L119.431 80.1499L133.092 83.2C133.092 83.2 132.973 79.5019 131.955 71.1907C131.12 64.3799 134.562 46.9871 134.562 46.9871V35.1823L125.422 34.1147C125.422 34.1147 123.959 37.3803 119.102 37.2131C113.115 37.0063 112.569 33.2911 112.569 33.2911L100.011 35.1823Z" fill="#FF735D"/>
<path d="M100.009 35.1771C100.009 35.1771 96.1974 35.5935 93.9818 37.6243C91.7666 39.6551 85.7666 47.686 85.7666 47.686L97.4378 56.8332L102.936 46.8552L100.009 35.1771Z" fill="#FF735D"/>
<g opacity="0.3">
<g opacity="0.3">
<path opacity="0.3" d="M93.7771 45.5193L125 81.0027L121.985 83.6018L89.7373 45.5192C89.7373 45.5192 92.1121 45.2086 93.7771 45.5193Z" fill="black"/>
</g>
</g>
<path d="M98.1227 44.0838C98.1802 44.0799 98.4305 46.8354 98.6816 50.2381C98.9328 53.6421 99.0897 56.404 99.0323 56.4087C98.9753 56.4125 98.725 53.6574 98.4734 50.2535C98.2226 46.8507 98.0657 44.0884 98.1227 44.0838Z" fill="#1A2E35"/>
<path d="M125.753 67.357C125.747 67.3698 125.509 67.2822 125.083 67.113C124.66 66.9394 124.039 66.7074 123.266 66.4434C122.493 66.1754 121.559 65.8986 120.512 65.6342C119.462 65.3814 118.297 65.1462 117.063 64.9738C115.827 64.8098 114.641 64.7242 113.561 64.6878C112.481 64.6622 111.507 64.679 110.691 64.7306C109.875 64.7786 109.215 64.8354 108.761 64.8894C108.306 64.939 108.053 64.9598 108.051 64.9458C108.048 64.9314 108.297 64.8834 108.75 64.8094C109.203 64.7306 109.863 64.6502 110.681 64.5834C111.5 64.513 112.479 64.481 113.566 64.4958C114.652 64.5222 115.846 64.6018 117.091 64.7674C118.333 64.941 119.505 65.183 120.559 65.4486C121.61 65.7246 122.545 66.017 123.315 66.3042C124.085 66.5878 124.7 66.8414 125.115 67.0382C125.532 67.2314 125.759 67.3438 125.753 67.357Z" fill="#1A2E35"/>
<path d="M135.867 38.3174C135.881 38.3198 135.851 38.5682 135.785 39.0146C135.713 39.495 135.617 40.1326 135.5 40.9042C135.263 42.5334 134.945 44.723 134.592 47.1434C134.242 49.5818 133.903 51.7866 133.624 53.3774C133.484 54.1726 133.365 54.815 133.274 55.2574C133.183 55.6998 133.126 55.943 133.112 55.9406C133.098 55.9378 133.128 55.6898 133.194 55.243C133.266 54.763 133.362 54.1258 133.478 53.3538C133.716 51.7246 134.034 49.5346 134.386 47.1134C134.736 44.6758 135.075 42.471 135.355 40.8806C135.494 40.0854 135.614 39.443 135.705 39.0006C135.796 38.5582 135.852 38.315 135.867 38.3174Z" fill="#1A2E35"/>
<g opacity="0.3">
<g opacity="0.3">
<path opacity="0.3" d="M83.9539 95.3513L90.0435 97.3485L85.5331 133.773H92.4795L99.3367 93.4321L83.9539 95.3513Z" fill="black"/>
</g>
</g>
<path d="M93.0881 42.95C93.0881 42.95 95.6221 43.2168 94.6885 44.6836C93.7549 46.1512 91.8513 45.7984 91.8513 45.7984L88.5085 44.8172L87.4877 43.6784V42.95C87.4877 42.95 89.4869 43.2612 90.6429 43.1724C91.7985 43.0832 93.0881 42.95 93.0881 42.95Z" fill="#D96D68"/>
<path d="M102.283 135.78L97.6546 153.928L75.0458 148.286C75.717 146.159 88.4958 144.742 88.4958 144.742L90.9838 132.992L102.283 135.78Z" fill="#375A64"/>
<path d="M95.7286 145.511C96.1363 145.74 96.3159 146.307 96.1039 146.724C95.8923 147.141 95.3167 147.328 94.905 147.106C94.4934 146.885 94.2569 146.21 94.5142 145.82C94.7717 145.43 95.4594 145.247 95.8056 145.56" fill="white"/>
<path d="M97.6429 153.969L98.1473 152.028L76.1994 147.432C76.1994 147.432 75.085 147.626 75.0265 148.364L97.6429 153.969Z" fill="#1A2E35"/>
<path d="M88.1531 144.54C88.1291 144.651 88.6688 144.839 89.1235 145.33C89.5912 145.809 89.7515 146.357 89.8638 146.338C89.9712 146.343 89.971 145.641 89.4104 145.057C88.8549 144.468 88.155 144.433 88.1531 144.54Z" fill="white"/>
<path d="M85.5372 144.931C85.4852 145.031 85.9165 145.339 86.1748 145.899C86.45 146.452 86.4185 146.98 86.5295 147.003C86.6288 147.046 86.8671 146.419 86.5323 145.728C86.204 145.034 85.5655 144.826 85.5372 144.931Z" fill="white"/>
<path d="M83.4877 147.427C83.5822 147.476 83.8735 146.963 83.7409 146.287C83.613 145.611 83.1518 145.242 83.0821 145.322C82.9972 145.398 83.2514 145.806 83.3521 146.362C83.4652 146.915 83.3809 147.389 83.4877 147.427Z" fill="white"/>
<path d="M89.0173 141.925C89.0387 142.038 89.5831 142.012 90.1964 142.21C90.8143 142.396 91.2476 142.726 91.3284 142.645C91.412 142.581 91.0403 142.055 90.3143 141.832C89.5904 141.603 88.9847 141.825 89.0173 141.925Z" fill="white"/>
<path d="M102.008 80.1708C102.008 80.1708 95.244 79.3768 94.1632 86.4352C93.1044 93.3488 88.6596 140.516 88.6596 140.516L101.362 143.078C101.362 143.078 109.968 121.435 111.116 114.262C112.264 107.088 112.55 97.6188 112.55 97.6188C112.55 97.6188 121.127 98.7192 128.99 95.7688C130.014 95.3848 132.303 83.0204 132.303 83.0204L121.979 80.7152L93.8992 65.0508L102.008 80.1708Z" fill="#1A2E35"/>
<path d="M109.863 85.0599L120.915 97.3455L136.271 83.6735C134.875 82.2863 124.308 86.4147 124.308 86.4147L117.55 78.2527L109.863 85.0599Z" fill="#375A64"/>
<path d="M118.971 89.9788C118.746 90.3242 118.838 90.8416 119.175 91.0802C119.511 91.3194 120.038 91.2301 120.269 90.8879C120.499 90.5461 120.408 89.9223 120.047 89.7228C119.686 89.5227 119.073 89.6615 118.931 90.0484" fill="white"/>
<path d="M120.939 97.3712L119.749 96.0612L135.017 83.4776C135.017 83.4776 135.967 83.1725 136.315 83.7251L120.939 97.3712Z" fill="#1A2E35"/>
<path d="M120.945 97.3696C120.945 97.366 120.972 97.3392 121.024 97.29C121.085 97.2332 121.161 97.1628 121.255 97.0756C121.469 96.8804 121.765 96.6112 122.141 96.2688C122.922 95.5664 124.032 94.5664 125.404 93.3312C128.172 90.8604 131.99 87.4504 136.252 83.6452L136.233 83.7784C136.06 83.4956 135.626 83.4524 135.246 83.5292C135.18 83.5412 135.112 83.5584 135.055 83.5752L135.089 83.5564C128.234 89.2064 122.347 94.0244 119.782 96.0912L119.786 96.0316C120.151 96.4488 120.438 96.7764 120.644 97.0112C120.736 97.1188 120.81 97.2048 120.868 97.2732C120.919 97.3332 120.945 97.366 120.945 97.3696C120.945 97.3732 120.918 97.3476 120.866 97.2948C120.806 97.2316 120.729 97.152 120.633 97.0524C120.416 96.8208 120.112 96.498 119.725 96.0872L119.696 96.056L119.73 96.028C122.248 93.904 128.102 89.046 134.957 83.3952L134.973 83.382L134.991 83.3768C135.064 83.3552 135.134 83.3384 135.208 83.3248C135.42 83.286 135.639 83.2716 135.857 83.3136C136.074 83.3508 136.29 83.4784 136.409 83.668L136.456 83.7428L136.39 83.8012C132.084 87.6004 128.224 91.0056 125.428 93.4728C124.046 94.6812 122.928 95.66 122.141 96.3472C121.764 96.6736 121.468 96.9304 121.253 97.1156C121.159 97.1952 121.084 97.2592 121.023 97.3104C120.971 97.3528 120.945 97.3732 120.945 97.3696Z" fill="#375A64"/>
<path d="M124.492 86.1185C124.557 86.196 124.212 86.5635 124.057 87.1334C123.888 87.6991 123.988 88.1928 123.893 88.2248C123.81 88.2716 123.523 87.7239 123.722 87.0377C123.914 86.3494 124.447 86.0353 124.492 86.1185Z" fill="white"/>
<path d="M126.692 85.3477C126.774 85.4052 126.563 85.8219 126.591 86.3657C126.602 86.9104 126.843 87.3104 126.766 87.3736C126.706 87.4482 126.263 87.0556 126.241 86.3784C126.214 85.7021 126.627 85.2777 126.692 85.3477Z" fill="white"/>
<path d="M129.324 86.4606C129.27 86.537 128.832 86.2554 128.659 85.6733C128.482 85.0926 128.691 84.6159 128.778 84.6502C128.876 84.6739 128.844 85.0969 128.994 85.5725C129.132 86.0518 129.392 86.387 129.324 86.4606Z" fill="white"/>
<path d="M122.741 84.426C122.771 84.5224 122.335 84.7251 121.937 85.1312C121.53 85.5296 121.327 85.9651 121.231 85.9354C121.139 85.9201 121.214 85.3558 121.69 84.8842C122.161 84.4089 122.726 84.3341 122.741 84.426Z" fill="white"/>
<path d="M83.9591 95.3475C83.9591 95.3475 77.8667 79.3791 78.6823 68.7007C79.4975 58.0223 78.3559 53.0103 79.3343 49.8079C80.3131 46.6055 81.4547 45.3007 86.1847 44.3219C90.9147 43.3435 92.8719 45.9531 94.9923 48.8887C97.1123 51.8247 122.513 81.0019 122.513 81.0019L112.448 90.1751L102.938 81.0019C102.938 81.0019 95.5627 80.4247 94.6659 85.9123C93.7963 91.2343 93.4051 95.452 93.4051 95.452L83.9591 95.3475Z" fill="#1A2E35"/>
<path d="M83.9613 95.3496C83.9613 95.3496 84.1765 95.3448 84.5893 95.3456C85.0053 95.3476 85.6161 95.3504 86.4153 95.354C88.0193 95.366 90.3753 95.3832 93.4077 95.406L93.3593 95.4492C93.5981 92.98 93.9585 90.0316 94.4797 86.6796C94.5453 86.2608 94.6085 85.8356 94.7053 85.4024C94.8237 84.9768 94.9701 84.5496 95.1925 84.15C95.6293 83.3484 96.3093 82.656 97.1353 82.1664C97.9577 81.6688 98.8997 81.344 99.8821 81.148C100.868 80.956 101.894 80.8712 102.946 80.9244L102.973 80.9256L102.995 80.9464C105.877 83.7216 109.091 86.8168 112.513 90.1116L112.388 90.11C115.538 87.2356 118.921 84.1492 122.449 80.9308L122.441 81.0688C117.129 74.9664 111.343 68.2996 105.358 61.3428C103.504 59.1764 101.671 57.0356 99.8657 54.926C98.9701 53.8648 98.0809 52.8116 97.1989 51.7664C96.3253 50.7164 95.4445 49.678 94.6493 48.5896C93.8609 47.5068 93.0497 46.4428 92.0393 45.614C91.5305 45.2072 90.9729 44.8708 90.3773 44.6308C89.7805 44.3884 89.1433 44.2824 88.5101 44.2288C87.2321 44.1636 85.9757 44.4484 84.7585 44.7632C83.5501 45.09 82.3561 45.5268 81.4185 46.3052C80.4765 47.0896 79.9597 48.2288 79.5817 49.3548C79.3829 49.9224 79.2497 50.4944 79.1597 51.0768C79.0841 51.6608 79.0397 52.2456 79.0229 52.8288C78.9681 55.162 79.0857 57.4364 79.0825 59.634C79.0945 61.8324 79.0441 63.9564 78.9345 65.994C78.8317 68.0336 78.6217 69.982 78.7169 71.8452C78.8409 75.5744 79.4361 78.916 80.0525 81.8136C80.6809 84.7128 81.3637 87.1776 81.9549 89.1804C82.5493 91.1828 83.0585 92.7232 83.4125 93.7644C83.5921 94.2808 83.7293 94.6752 83.8233 94.946C83.8685 95.0756 83.9029 95.1748 83.9281 95.2456C83.9509 95.3128 83.9613 95.3496 83.9613 95.3496C83.9613 95.3496 83.9025 95.2164 83.8033 94.9536C83.7049 94.6844 83.5609 94.2916 83.3729 93.778C83.0057 92.7412 82.4841 91.204 81.8773 89.2036C81.2737 87.2032 80.5785 84.7396 79.9385 81.8388C79.3109 78.9392 78.7037 75.5936 78.5697 71.8496C78.4697 69.9764 78.6761 68.0168 78.7741 65.986C78.8789 63.9508 78.9257 61.8304 78.9097 59.6348C78.9093 57.4392 78.7881 55.1704 78.8397 52.8228C78.8557 52.236 78.8997 51.6444 78.9761 51.0508C79.0657 50.46 79.2045 49.864 79.4037 49.2952C79.7833 48.1592 80.3129 46.9784 81.2941 46.1588C82.2693 45.3488 83.4881 44.9064 84.7073 44.5744C85.9309 44.2568 87.2053 43.9648 88.5217 44.0304C89.1737 44.084 89.8325 44.1936 90.4505 44.444C91.0673 44.692 91.6441 45.0396 92.1661 45.4572C93.2033 46.3072 94.0229 47.3848 94.8145 48.4692C95.6061 49.5516 96.4817 50.5832 97.3569 51.6344C98.2389 52.6788 99.1277 53.7316 100.024 54.7916C101.829 56.9012 103.661 59.0412 105.516 61.2072C111.52 68.146 117.296 74.8212 122.59 80.9392L122.653 81.012L122.582 81.0768C119.051 84.2912 115.665 87.374 112.511 90.2448L112.448 90.3028L112.386 90.2428C108.97 86.942 105.761 83.8412 102.884 81.0612L102.933 81.0832C101.904 81.0288 100.882 81.1104 99.9117 81.2976C98.9421 81.4888 98.0153 81.8068 97.2109 82.2912C96.4021 82.7676 95.7409 83.4388 95.3137 84.2164C95.0965 84.6044 94.9529 85.0204 94.8357 85.4352C94.7401 85.8552 94.6753 86.2812 94.6085 86.7C94.0773 90.0472 93.7057 92.9936 93.4549 95.458L93.4505 95.5024L93.4065 95.502C90.3653 95.4576 88.0017 95.4228 86.3933 95.3992C85.5973 95.3852 84.9897 95.3744 84.5753 95.3672C84.1669 95.3588 83.9613 95.3496 83.9613 95.3496Z" fill="#375A64"/>
<g opacity="0.3">
<g opacity="0.3">
<path opacity="0.3" d="M119.867 96.0751C119.226 97.0019 117.743 96.9255 116.854 96.2335C115.965 95.5419 115.508 94.4491 115.04 93.4239C114.571 92.3995 113.995 91.3331 112.993 90.8159C112.149 91.7439 110.555 91.4855 109.588 90.6847C108.622 89.8835 108.071 88.7039 107.356 87.6719C104.258 83.1939 98.3981 81.7651 93.8421 78.7823C87.8789 74.8779 84.0793 67.8667 84.0637 60.7387C84.0637 60.7387 84.9933 66.7975 90.5837 72.4635C96.1745 78.1299 99.3409 79.3859 102.655 80.8943L112.446 90.1747L113.559 89.1611L119.867 96.0751Z" fill="black"/>
</g>
</g>
<path d="M102.938 81.0029C102.936 81.0097 102.835 80.9765 102.646 80.9065C102.439 80.8273 102.164 80.7221 101.821 80.5909C101.64 80.5201 101.442 80.4425 101.226 80.3581C101.011 80.2665 100.784 80.1529 100.537 80.0381C100.046 79.7997 99.4728 79.5565 98.8812 79.2069C98.5804 79.0393 98.2664 78.8641 97.9392 78.6817C97.6132 78.4969 97.2928 78.2737 96.9504 78.0589C96.2584 77.6401 95.5728 77.1141 94.84 76.5773C93.4116 75.4553 91.924 74.1117 90.522 72.5501C89.1368 70.9725 87.9788 69.3361 87.034 67.7845C86.5872 66.9933 86.1464 66.2497 85.8124 65.5129C85.6396 65.1477 85.4556 64.8033 85.3108 64.4577C85.1684 64.1113 85.0316 63.7781 84.9012 63.4601C84.624 62.8309 84.45 62.2329 84.272 61.7177C84.1872 61.4585 84.1012 61.2197 84.0356 60.9957C83.9776 60.7713 83.9236 60.5653 83.8748 60.3773C83.7852 60.0205 83.7136 59.7361 83.6596 59.5205C83.6124 59.3245 83.5912 59.2205 83.598 59.2189C83.6052 59.2173 83.64 59.3177 83.7004 59.5105C83.7636 59.7225 83.8476 60.0033 83.9532 60.3553C84.0068 60.5409 84.066 60.7445 84.1304 60.9665C84.2016 61.1881 84.2928 61.4245 84.382 61.6805C84.5704 62.1901 84.7528 62.7821 85.0376 63.4045C85.1716 63.7197 85.3116 64.0489 85.4572 64.3917C85.6052 64.7341 85.792 65.0753 85.9672 65.4365C86.306 66.1657 86.75 66.9013 87.1984 67.6853C88.1468 69.2225 89.3012 70.8445 90.678 72.4117C92.0708 73.9633 93.5444 75.3017 94.958 76.4253C95.6832 76.9629 96.3608 77.4917 97.0448 77.9141C97.3832 78.1305 97.6996 78.3565 98.022 78.5441C98.3452 78.7293 98.6556 78.9077 98.9524 79.0781C99.5368 79.4341 100.103 79.6857 100.587 79.9325C100.83 80.0521 101.054 80.1705 101.266 80.2669C101.478 80.3573 101.674 80.4405 101.852 80.5157C102.189 80.6617 102.458 80.7785 102.661 80.8669C102.845 80.9493 102.941 80.9961 102.938 81.0029Z" fill="#375A64"/>
<path d="M83.7487 42.5082C83.7487 42.5082 84.6823 41.3078 85.6159 41.619C86.5495 41.9302 92.2735 45.633 92.4895 46.5986C92.7047 47.5642 92.3295 48.6438 91.6183 48.5102C90.9067 48.377 86.2827 44.6866 86.2827 44.6866L85.6603 44.5534C85.6603 44.5534 89.2015 47.5102 89.1871 48.5218C89.1727 49.533 88.5503 50.111 87.8391 49.933C87.1275 49.7554 82.2815 45.487 82.2815 45.487L81.9703 45.7662C81.9703 45.7662 85.9719 49.8442 85.8383 50.5554C85.7051 51.267 84.5935 51.4446 83.6599 51.089C82.7259 50.7334 80.0583 47.5766 80.0583 47.5766L80.0371 48.9894L80.6367 50.4666L82.1927 52.2006C82.1927 52.2006 82.6819 53.6234 81.2587 53.4454C79.8363 53.2674 79.5067 52.0394 79.1155 51.6978C78.7247 51.3558 78.0579 50.0666 78.0579 50.0666V46.9542C78.0579 46.9542 78.2355 45.8426 79.4359 45.9762C79.4359 45.9762 79.4807 44.909 80.4143 44.5534C81.3479 44.1978 81.7923 44.4646 81.7923 44.4646C81.7923 44.4646 82.0591 42.375 83.7487 42.5082Z" fill="#D96D68"/>
<g opacity="0.3">
<g opacity="0.3">
<path opacity="0.3" d="M167.56 133.824L161.754 133.886L159.281 111.303L156.663 105.683L157.209 99.0101L143.381 95.5317L162.693 95.2449L169.772 107.146L181.672 102.084L189.108 104.412L193.145 112.654L188.749 115.293L185.886 111.712L182.131 108.111L178.517 132.996L167.56 133.824Z" fill="black"/>
</g>
</g>
<path d="M169.512 23.7485C169.775 23.4649 170.154 23.1997 170.541 23.0717L170.462 23.0669C170.535 23.0469 170.609 23.0385 170.683 23.0297C170.966 22.9625 171.248 22.9769 171.486 23.1289L171.479 23.1285C171.919 23.2905 172.307 23.6133 172.52 24.0341C172.889 24.7669 172.752 25.7021 172.254 26.3549C171.822 26.9221 171.078 27.2937 170.385 27.1253C169.748 26.9709 169.276 26.3933 169.096 25.7637C168.898 25.0741 169.024 24.2741 169.512 23.7485Z" fill="#375A64"/>
<path d="M156.286 8.532C155.06 7.75399 154.764 5.94919 155.428 4.65839C156.092 3.36759 157.502 2.58359 158.935 2.35279C161.009 2.01799 163.227 2.75319 164.691 4.25999C165.482 5.07439 166.123 6.13719 167.195 6.51039C168.138 6.83839 169.181 6.54199 170.171 6.67039C171.498 6.84239 172.635 7.78559 173.315 8.9376C173.996 10.09 174.276 11.4332 174.433 12.762C174.578 13.9816 174.673 15.32 175.519 16.21C176.344 17.0776 177.647 17.2616 178.674 17.8792C180.604 19.0404 181.229 21.918 179.956 23.7764C179.55 24.3688 178.966 24.912 178.919 25.6288C178.876 26.2832 179.299 26.866 179.497 27.4912C180.008 29.1008 178.69 31.0132 177.004 31.11C176.153 31.1588 175.241 30.8272 174.478 31.2076C173.721 31.5856 173.439 32.4992 172.954 33.194C172 34.5596 170.006 35.0748 168.51 34.3412C167.885 34.0344 167.294 33.5276 166.598 33.5744C165.904 33.6212 165.357 34.214 164.674 34.346C163.78 34.5192 162.931 33.8604 162.399 33.1208C161.868 32.3816 161.497 31.5104 160.816 30.9052C159.926 30.1124 158.674 29.9164 157.546 29.5284C155.057 28.6712 152.977 26.696 151.993 24.2548C151.009 21.8136 151.138 18.948 152.336 16.6048" fill="#1A2E35"/>
<path d="M153.081 37.5958L151.779 13.6881C151.728 12.6357 152.491 11.7197 153.535 11.5789L164.223 8.55214C167.661 8.08974 170.074 12.2697 170.39 15.7237C170.742 19.5614 171.02 24.2602 170.645 27.1414C169.893 32.935 165.147 33.8122 165.147 33.8122C165.145 33.7926 165.112 39.7122 165.147 41.8086L166.464 48.3074L153.081 37.5958Z" fill="#FFC19D"/>
<path d="M169.205 20.3182C169.229 20.7088 168.92 21.0513 168.513 21.0847C168.107 21.1182 167.756 20.8299 167.731 20.4395C167.706 20.0494 168.016 19.706 168.423 19.6726C168.83 19.6391 169.18 19.9278 169.205 20.3182Z" fill="#1A2E35"/>
<path d="M169.441 18.1989C169.352 18.2981 168.78 17.8993 167.984 17.9241C167.189 17.9373 166.616 18.3633 166.527 18.2681C166.483 18.2261 166.572 18.0493 166.821 17.8573C167.066 17.6657 167.488 17.4741 167.984 17.4621C168.48 17.4509 168.902 17.6217 169.147 17.8013C169.397 17.9821 169.485 18.1545 169.441 18.1989Z" fill="#1A2E35"/>
<path d="M161.111 20.3182C161.136 20.7088 160.826 21.0513 160.419 21.0848C160.013 21.1182 159.663 20.8299 159.638 20.4395C159.613 20.0494 159.923 19.706 160.33 19.6726C160.736 19.6391 161.086 19.9278 161.111 20.3182Z" fill="#1A2E35"/>
<path d="M161.623 18.5652C161.533 18.6644 160.961 18.2656 160.165 18.2904C159.37 18.3036 158.797 18.7296 158.708 18.6348C158.665 18.5928 158.752 18.416 159.002 18.2236C159.247 18.032 159.669 17.8404 160.165 17.8284C160.661 17.8172 161.083 17.988 161.329 18.1676C161.578 18.3488 161.666 18.5208 161.623 18.5652Z" fill="#1A2E35"/>
<path d="M164.678 24.3855C164.673 24.3403 165.165 24.2407 165.964 24.1155C166.167 24.0887 166.358 24.0431 166.388 23.9031C166.432 23.7551 166.341 23.5387 166.235 23.3047C166.03 22.8183 165.816 22.3083 165.59 21.7743C164.693 19.5943 164.037 17.7995 164.125 17.7643C164.213 17.7287 165.013 19.4671 165.909 21.6467C166.126 22.1847 166.333 22.6971 166.53 23.1875C166.613 23.4163 166.753 23.6743 166.658 23.9823C166.607 24.1355 166.461 24.2499 166.332 24.2887C166.203 24.3323 166.088 24.3379 165.988 24.3463C165.183 24.4127 164.682 24.4307 164.678 24.3855Z" fill="#1A2E35"/>
<path d="M165.145 33.8041C165.145 33.8041 161.619 34.1469 157.709 31.9453C157.709 31.9453 159.379 36.2353 165.136 35.5317L165.145 33.8041Z" fill="#FF9C6A"/>
<path d="M164.604 25.8779C164.118 25.7223 163.576 25.4363 162.978 25.4763C162.563 25.5039 162.163 25.7075 161.947 26.0759C161.731 26.4443 161.733 26.9843 162.002 27.3615C162.305 27.7867 162.861 27.9111 163.307 27.7895C163.754 27.6679 163.828 27.4111 164.118 27.0451C164.309 26.8059 164.618 26.3779 164.67 26.2527C164.723 26.1279 164.696 25.9887 164.604 25.8779Z" fill="#FF9C6A"/>
<path d="M161.88 15.2788C161.808 15.4972 161.01 15.4176 160.08 15.5564C159.146 15.6768 158.401 15.9716 158.272 15.7808C158.214 15.6896 158.339 15.4824 158.638 15.264C158.934 15.0464 159.409 14.8339 159.969 14.7555C160.527 14.6783 161.043 14.7527 161.387 14.8815C161.734 15.0099 161.911 15.1752 161.88 15.2788Z" fill="#1A2E35"/>
<path d="M169.084 15.4644C168.949 15.6488 168.396 15.4772 167.736 15.4868C167.076 15.4736 166.522 15.6428 166.388 15.4576C166.329 15.3672 166.412 15.1836 166.651 15.0056C166.886 14.8284 167.284 14.6776 167.738 14.6784C168.192 14.68 168.589 14.8324 168.824 15.0112C169.062 15.1904 169.143 15.3744 169.084 15.4644Z" fill="#1A2E35"/>
<path d="M174.281 14.508C174.013 13.6436 173.518 12.8192 172.76 12.3252C172.344 12.0544 171.862 11.8896 171.476 11.578C170.642 10.9052 170.449 9.734 169.935 8.7948C169.272 7.5836 167.99 6.73359 166.616 6.59319C165.473 6.47639 164.296 6.81919 163.182 6.53839C162.358 6.33079 161.639 5.79599 160.804 5.63759C159.18 5.32879 157.669 6.49479 156.491 7.6556C156.487 8.8188 157.414 9.5964 158.306 10.3428C159.197 11.0892 160.427 11.414 161.572 11.2048C162.459 11.0424 163.432 10.5936 164.2 11.0668C165.008 11.5644 165.041 12.7824 165.758 13.4044C166.782 14.2932 168.411 13.4592 169.711 13.8448C170.715 14.1424 171.342 15.1024 172.009 15.9096C172.676 16.7172 173.676 17.4848 174.68 17.1868C174.616 16.284 174.55 15.372 174.281 14.508Z" fill="#1A2E35"/>
<path d="M162.077 9.59652C161.349 9.38812 159.858 8.91652 159.467 8.28492C158.619 6.91252 157.123 5.97572 155.595 6.05932C154.066 6.14292 152.599 7.34972 152.286 8.96372C150.437 8.97772 148.633 10.1389 147.745 11.8869C147.635 12.1053 147.538 12.3321 147.457 12.5649C146.881 13.5781 146.77 14.8493 147.188 15.9393C147.44 16.5973 147.869 17.3293 147.531 17.9469C147.186 18.5757 146.316 18.5957 145.638 18.8293C144.459 19.2357 143.694 20.5909 143.957 21.8105C144.051 22.2481 144.26 22.6849 144.169 23.1233C144.074 23.5797 143.684 23.9017 143.384 24.2581C142.639 25.1437 142.408 26.4337 142.801 27.5225C143.193 28.6117 144.193 29.4581 145.332 29.6649C145.85 29.7593 146.411 29.7373 146.86 30.0133C147.374 30.3297 147.599 30.9485 147.962 31.4313C148.658 32.3569 149.968 32.7669 151.067 32.4037C151.29 32.3297 151.497 32.2189 151.691 32.0897C152.038 32.5713 152.583 32.8969 153.514 32.8969L153.301 20.7357C153.416 20.9917 153.639 21.2225 154.037 21.3129C155.989 21.7545 156.275 17.7321 155.839 16.6421C156.545 16.0149 157.259 15.3793 157.798 14.5825C158.336 13.7861 158.811 11.6141 158.696 10.6365C159.4 10.6777 162.397 9.68812 162.077 9.59652Z" fill="#1A2E35"/>
<path d="M153.842 21.7162C153.781 20.4804 152.268 20.2158 151.196 20.8353C150.608 21.1752 150.158 21.8588 150.212 23.1711C150.356 26.6706 153.84 25.8044 153.842 25.7039C153.843 25.6415 153.914 23.1639 153.842 21.7162Z" fill="#FFC19D"/>
<path d="M152.717 24.4244C152.701 24.414 152.657 24.4696 152.557 24.5212C152.458 24.5712 152.286 24.61 152.101 24.5492C151.725 24.4288 151.39 23.8548 151.347 23.2244C151.325 22.9064 151.379 22.6004 151.482 22.3448C151.578 22.0844 151.737 21.8988 151.921 21.8576C152.105 21.8076 152.241 21.9136 152.288 22.01C152.339 22.106 152.319 22.1768 152.339 22.182C152.348 22.1904 152.411 22.1204 152.377 21.9768C152.359 21.908 152.315 21.8272 152.23 21.7632C152.143 21.6984 152.019 21.6688 151.889 21.688C151.62 21.718 151.388 21.976 151.275 22.2572C151.147 22.5396 151.079 22.8836 151.104 23.2412C151.155 23.9452 151.543 24.5904 152.055 24.716C152.304 24.77 152.507 24.6872 152.609 24.6C152.714 24.5092 152.729 24.4304 152.717 24.4244Z" fill="#FF9C6A"/>
<path d="M157.265 8.64664C157.291 8.68384 156.912 8.74664 156.567 9.23104C156.22 9.70784 156.09 10.6218 156.309 11.6514L156.328 11.7394L156.242 11.761C155.376 11.9766 154.423 12.665 153.988 13.7474C153.885 14.0146 153.815 14.3102 153.806 14.601C153.805 14.8974 153.858 15.2078 153.916 15.5258C153.973 15.8442 154.038 16.1726 154.049 16.5218C154.073 16.8638 153.981 17.2611 153.772 17.5547C153.337 18.2167 152.637 18.5427 152.036 18.8591C151.418 19.1659 150.846 19.4795 150.411 19.9231C149.524 20.7959 149.129 21.9235 149.104 22.8555C149.07 23.7999 149.336 24.5463 149.565 25.0183C149.797 25.4963 149.992 25.7239 149.973 25.7383C149.966 25.7439 149.915 25.6899 149.823 25.5811C149.736 25.4691 149.609 25.3007 149.48 25.0627C149.22 24.5939 148.917 23.8343 148.929 22.8511C148.933 21.8791 149.327 20.6887 150.25 19.7619C150.703 19.2895 151.314 18.9503 151.925 18.6435C152.526 18.3275 153.186 18.0047 153.564 17.4202C153.952 16.8886 153.779 16.195 153.677 15.5682C153.621 15.2486 153.566 14.927 153.569 14.597C153.582 14.2626 153.66 13.9538 153.774 13.663C154.256 12.5014 155.275 11.7946 156.199 11.5834L156.132 11.693C155.924 10.6142 156.088 9.66784 156.485 9.17144C156.676 8.92464 156.886 8.79104 157.032 8.72544C157.183 8.66464 157.262 8.63824 157.265 8.64664Z" fill="#375A64"/>
<path d="M151.064 24.9662C151.327 24.6826 151.706 24.4174 152.093 24.2894L152.014 24.2846C152.087 24.2646 152.161 24.2562 152.235 24.247C152.518 24.1802 152.8 24.1946 153.038 24.3466L153.031 24.3462C153.471 24.5078 153.859 24.831 154.072 25.2518C154.441 25.9846 154.304 26.9198 153.806 27.5726C153.374 28.1398 152.63 28.5114 151.937 28.343C151.3 28.1886 150.828 27.611 150.648 26.9814C150.45 26.2918 150.576 25.4914 151.064 24.9662Z" fill="#375A64"/>
<path d="M156.694 17.0222L151.775 19.373C151.775 19.373 150.6 20.3142 150.692 21.2654C150.692 21.2654 151.138 20.3974 152.808 20.5598C152.808 20.5598 153.452 20.6722 153.726 21.243L156.605 22.249L156.694 17.0222Z" fill="#E1E1E1"/>
<path d="M171.237 21.0186C171.237 21.275 171.029 21.483 170.773 21.483H167.251C166.995 21.483 166.787 21.275 166.787 21.0186V18.5022C166.787 18.2458 166.995 18.0378 167.251 18.0378H170.773C171.029 18.0378 171.237 18.2458 171.237 18.5022V21.0186ZM162.88 21.0186C162.88 21.275 162.672 21.483 162.415 21.483H158.339C158.082 21.483 157.875 21.275 157.875 21.0186V18.5022C157.875 18.2458 158.082 18.0378 158.339 18.0378H162.415C162.672 18.0378 162.88 18.2458 162.88 18.5022V21.0186ZM156.695 17.0222C156.662 17.199 156.61 22.249 156.61 22.249L163.321 22.337C163.321 22.337 164.459 20.031 164.867 20.0066C165.479 19.9698 166.436 22.167 166.436 22.167C166.912 22.167 172.107 22.189 172.107 22.189V17.1702L156.695 17.0222Z" fill="#E1E1E1"/>
<path d="M162.366 21.4833H158.387C158.103 21.4833 157.874 21.2533 157.874 20.9697V18.5521C157.874 18.2681 158.103 18.0385 158.387 18.0385H162.366C162.649 18.0385 162.879 18.2681 162.879 18.5521V20.9697C162.879 21.2533 162.649 21.4833 162.366 21.4833Z" fill="#375A64"/>
<path d="M170.718 21.4833H167.295C167.011 21.4833 166.782 21.2533 166.782 20.9697V18.5521C166.782 18.2681 167.011 18.0385 167.295 18.0385H170.718C171.001 18.0385 171.231 18.2681 171.231 18.5521V20.9697C171.231 21.2533 171.001 21.4833 170.718 21.4833Z" fill="#FF735D"/>
<path d="M156.724 22.305C156.666 22.305 156.619 21.1386 156.619 19.7002C156.619 18.2614 156.666 17.0954 156.724 17.0954C156.781 17.0954 156.828 18.2614 156.828 19.7002C156.828 21.1386 156.781 22.305 156.724 22.305Z" fill="#1A2E35"/>
<path d="M162.323 18.6046C162.364 18.6458 161.766 19.2936 160.99 20.0512C160.213 20.8094 159.551 21.39 159.511 21.349C159.471 21.3075 160.068 20.66 160.844 19.9021C161.621 19.1445 162.283 18.5631 162.323 18.6046Z" fill="white"/>
<path d="M161.381 18.421C161.421 18.4628 160.973 18.958 160.382 19.5275C159.789 20.0972 159.277 20.5251 159.238 20.4839C159.198 20.4424 159.645 19.9471 160.237 19.3774C160.829 18.8079 161.341 18.3795 161.381 18.421Z" fill="white"/>
<path d="M169.112 19.2691C169.155 19.3075 168.87 19.6962 168.475 20.1368C168.081 20.5783 167.726 20.9045 167.683 20.8661C167.64 20.8277 167.925 20.4397 168.32 19.9981C168.715 19.5569 169.069 19.2307 169.112 19.2691Z" fill="white"/>
<path d="M170.513 18.3798C170.561 18.4089 170.199 19.0626 169.609 19.7645C169.021 20.469 168.441 20.9391 168.404 20.8984C168.363 20.8548 168.871 20.3238 169.45 19.6312C170.03 18.9407 170.463 18.3471 170.513 18.3798Z" fill="white"/>
<path d="M163.542 27.5453C163.549 27.5537 163.493 27.6237 163.353 27.7009C163.213 27.7733 162.981 27.8477 162.691 27.8133C162.409 27.7805 162.051 27.6401 161.829 27.3017C161.609 26.9681 161.579 26.4849 161.781 26.0781C161.878 25.8729 162.036 25.7021 162.221 25.5877C162.405 25.4765 162.609 25.4233 162.8 25.4065C163.189 25.3673 163.516 25.4973 163.772 25.5621C164.304 25.6973 164.62 25.8481 164.605 25.8785C164.594 25.9001 164.277 25.8037 163.738 25.7053C163.465 25.6545 163.159 25.5513 162.819 25.5977C162.481 25.6289 162.131 25.8165 161.968 26.1697C161.797 26.5129 161.819 26.9225 161.991 27.1985C162.163 27.4813 162.464 27.6213 162.713 27.6677C163.237 27.7585 163.529 27.5085 163.542 27.5453Z" fill="#1A2E35"/>
<path d="M176.869 76.6326C176.869 76.6326 179.341 55.5058 179.513 55.3334C179.685 55.1614 173.292 37.0518 173.292 37.0518L165.14 35.5334C165.14 35.5334 165.383 39.1542 160.915 39.4286C155.43 39.765 152.971 35.525 152.971 35.525L143.152 38.3114L147.577 70.1042L143.956 75.591L141.898 85.0098L176.869 76.6326Z" fill="#E1E1E1"/>
<path d="M173.373 37.2828C174.105 37.2828 179.831 38.8844 181.309 42.2932C182.598 45.2656 185.273 53.2008 185.273 53.2008C185.273 53.2008 188.812 65.5092 188.817 67.6876C188.823 70.2012 188.906 76.3481 181.355 73.6753L177.2 70.0908L177.475 50.2948L173.373 37.2828Z" fill="#FFC19D"/>
<path d="M185.672 64.541C185.672 64.541 184.293 63.2238 182.057 60.8942C179.376 58.1014 174.591 53.6982 174.591 53.6982L172 56.4986C172 56.4986 173.903 60.2954 174.499 61.2546C176.011 63.691 175.825 64.9906 178.048 68.353C180.324 71.7958 183.347 74.215 183.347 74.215L185.672 64.541Z" fill="#FFC19D"/>
<path d="M163.139 53.0712C162.813 53.5008 162.182 53.6668 161.687 53.4528C161.192 53.2388 160.88 52.6656 160.97 52.134C160.893 52.2232 160.742 52.2128 160.65 52.1396C160.557 52.0664 160.512 51.9492 160.483 51.8348C160.394 51.4824 160.431 51.0928 160.619 50.782C160.807 50.4708 161.151 50.2508 161.515 50.2468C161.878 50.2436 162.241 50.4752 162.36 50.8184C162.36 50.8184 162.788 50.1604 163.284 50.8836C163.78 51.6064 163.385 52.7 163.385 52.7L163.139 53.0712Z" fill="white"/>
<path d="M175.231 54.4156L172.805 50.6708C172.805 50.6708 172.812 49.6044 171.86 48.9952C171.86 48.9952 171.517 47.51 170.184 47.7C168.851 47.8908 166.3 48.0048 166.3 48.0048C166.3 48.0048 163.062 49.7568 162.605 50.4804C162.148 51.204 162.148 51.5468 162.453 51.8136C162.757 52.08 163.405 52.08 163.405 52.08C163.405 52.08 162.681 52.8416 162.948 53.2228C163.215 53.6036 164.548 53.1844 164.548 53.1844C164.548 53.1844 164.053 54.0604 164.548 54.5556C165.043 55.0504 166.147 54.784 166.147 54.784C166.147 54.784 166.833 55.8504 167.48 55.9648C168.127 56.0788 168.687 55.736 168.687 55.736L169.118 55.1332L170.527 55.3932C170.527 55.3932 170.908 56.5348 171.213 57.0684C171.517 57.6024 173.536 58.5164 173.536 58.5164L175.231 54.4156Z" fill="#FFC19D"/>
<path d="M167.076 54.7994C167.056 54.7826 167.207 54.539 167.499 54.1762C167.791 53.8246 168.247 53.3154 168.948 53.0594C169.653 52.8286 170.304 52.8846 170.752 52.8222C171.204 52.7794 171.469 52.6754 171.482 52.7058C171.495 52.7266 171.238 52.885 170.772 52.9678C170.314 53.0678 169.659 53.0422 169.018 53.2558C168.379 53.487 167.925 53.9506 167.609 54.2742C167.294 54.6062 167.101 54.819 167.076 54.7994Z" fill="#FF9C6A"/>
<path d="M164.558 53.6563C164.54 53.6331 164.837 53.3619 165.329 52.9431C165.82 52.5219 166.51 51.9635 167.274 51.3367C167.466 51.1779 167.675 51.0235 167.914 50.9439C168.147 50.8583 168.385 50.8339 168.605 50.8327C169.047 50.8347 169.425 50.9103 169.743 50.9347C170.382 51.0099 170.756 50.8499 170.768 50.8823C170.786 50.9007 170.4 51.1215 169.734 51.0815C169.407 51.0751 169.022 51.0155 168.608 51.0247C168.188 51.0255 167.768 51.1655 167.407 51.4971C166.646 52.1215 165.933 52.6683 165.418 53.0599C164.902 53.4503 164.574 53.6795 164.558 53.6563Z" fill="#FF9C6A"/>
<path d="M170.53 49.3622C170.529 49.3922 170.07 49.3966 169.337 49.3334C168.613 49.283 167.578 49.1662 166.557 49.6046C165.536 50.0274 164.78 50.725 164.253 51.2238C163.726 51.7326 163.409 52.0606 163.386 52.039C163.367 52.0214 163.644 51.6602 164.148 51.1202C164.653 50.5914 165.411 49.855 166.478 49.4122C167.008 49.191 167.56 49.0966 168.054 49.0938C168.549 49.0866 168.987 49.1418 169.352 49.1866C170.08 49.2874 170.53 49.3346 170.53 49.3622Z" fill="#FF9C6A"/>
<path d="M151.218 54.6272C151.541 53.9968 152.21 53.5584 152.917 53.5136C152.598 52.8252 153.22 51.9036 153.977 51.9416C154.735 51.9792 155.261 52.958 154.876 53.6112C155.242 53.3336 155.773 53.2952 156.175 53.5176C156.576 53.74 156.826 54.2104 156.785 54.6676C157.133 54.1428 157.878 53.926 158.453 54.1828C158.28 53.6204 158.652 52.9508 159.221 52.8016C159.791 52.6524 160.443 53.0528 160.568 53.628C161.115 53.416 161.789 53.9776 161.679 54.554C162.28 54.07 163.198 54.0276 163.842 54.454C163.99 53.6176 164.951 53.0272 165.764 53.274C166.576 53.5208 167.048 54.5464 166.705 55.3236C166.997 55.1552 167.289 54.9872 167.58 54.8188" fill="white"/>
<path d="M171.818 55.9412C171.725 56.2941 169.071 78.7656 169.071 78.7656L151.951 78.7656L150.434 56.2939L171.818 55.9412Z" fill="#FF735D"/>
<path d="M152.481 56.2983L153.398 73.1682L154.736 72.1256L154.437 56.2985L152.481 56.2983Z" fill="white"/>
<path d="M156.024 56.2983L156.941 73.1682L158.279 72.1253L157.98 56.2982L156.024 56.2983Z" fill="white"/>
<path d="M159.979 56.3624L160.896 73.2324L162.234 72.1894L161.935 56.3623L159.979 56.3624Z" fill="white"/>
<path d="M163.907 56.3624L164.824 73.2324L166.161 72.1894L165.862 56.3623L163.907 56.3624Z" fill="white"/>
<path d="M167.578 56.2991L167.572 73.1691L168.91 72.1264L169.575 56.299L167.578 56.2991Z" fill="white"/>
<path d="M150.26 56.2972H171.955C172.367 56.2972 172.701 55.9636 172.701 55.5516C172.701 55.14 172.367 54.806 171.955 54.806H150.26C149.848 54.806 149.515 55.14 149.515 55.5516C149.515 55.9636 149.848 56.2972 150.26 56.2972Z" fill="#FF735D"/>
<path d="M150.256 56.2917C150.256 56.2917 150.214 56.3017 150.131 56.2913C150.05 56.2801 149.923 56.2525 149.789 56.1533C149.659 56.0581 149.519 55.8841 149.486 55.6397C149.449 55.4017 149.542 55.0893 149.808 54.9009C149.937 54.8077 150.109 54.7517 150.285 54.7557C150.454 54.7541 150.631 54.7525 150.816 54.7509C151.187 54.7485 151.589 54.7457 152.02 54.7425C152.886 54.7381 153.869 54.7329 154.955 54.7269C159.317 54.7193 165.32 54.7085 171.95 54.6965C172.435 54.6825 172.854 55.1457 172.798 55.6205C172.779 55.8537 172.657 56.0749 172.473 56.2161C172.297 56.3645 172.032 56.4097 171.836 56.3953C171.028 56.3949 170.232 56.3941 169.449 56.3937C167.885 56.3917 166.375 56.3897 164.937 56.3877C162.064 56.3793 159.475 56.3717 157.296 56.3657C155.132 56.3513 153.376 56.3401 152.145 56.3325C151.548 56.3241 151.079 56.3173 150.745 56.3129C150.594 56.3085 150.474 56.3049 150.381 56.3025C150.298 56.2989 150.256 56.2953 150.256 56.2917C150.256 56.2881 150.298 56.2845 150.381 56.2813C150.474 56.2785 150.594 56.2749 150.745 56.2709C151.079 56.2661 151.548 56.2593 152.145 56.2513C153.376 56.2433 155.132 56.2321 157.296 56.2181C159.475 56.2117 162.064 56.2041 164.937 56.1957C166.375 56.1937 167.885 56.1917 169.449 56.1897C170.232 56.1893 171.028 56.1889 171.836 56.1881C172.218 56.2365 172.563 55.9673 172.59 55.6025C172.633 55.2437 172.317 54.8945 171.95 54.9049C165.32 54.8929 159.317 54.8821 154.955 54.8745C153.869 54.8685 152.886 54.8633 152.02 54.8589C151.589 54.8557 151.187 54.8529 150.816 54.8501C150.448 54.8637 150.091 54.7845 149.854 54.9673C149.612 55.1317 149.52 55.4117 149.547 55.6325C149.572 55.8577 149.695 56.0245 149.815 56.1201C150.069 56.3113 150.263 56.2741 150.256 56.2917Z" fill="#1A2E35"/>
<path d="M153.331 59.4033C153.331 59.4033 152.757 60.4705 152.255 60.7769C151.753 61.0829 149.492 63.0565 149.492 63.0565L147.483 66.9677C147.483 66.9677 146.622 70.2689 146.622 70.3765C146.622 70.4841 147.519 73.0317 148.236 73.3189C148.954 73.6061 152.542 74.0725 152.542 74.0725H157.817L159.611 72.9957C159.611 72.9957 159.323 72.0273 158.391 72.3857C157.458 72.7449 156.669 72.7089 156.669 72.7089L154.659 72.4577L154.085 72.1705L157.494 71.9193C157.494 71.9193 161.8 70.8073 161.943 70.4121C162.087 70.0177 161.656 69.7305 161.441 69.5869C161.225 69.4437 158.535 69.9101 157.96 69.9817C157.386 70.0537 154.623 69.8385 154.623 69.8385L157.889 69.4793C157.889 69.4793 162.517 68.7617 162.23 67.9725C161.943 67.1829 161.728 67.2909 160.58 67.2189C159.431 67.1469 157.53 67.6493 157.53 67.6493L154.085 67.5777L160.435 66.4293C160.435 66.4293 161.604 66.2865 161.622 65.5537C161.64 64.8149 160.732 64.5701 159.62 64.7133C158.507 64.8569 152.075 65.4965 152.075 65.4965L151.537 65.1377L151.968 63.7025C151.968 63.7025 153.188 62.7697 153.655 62.0161C154.121 61.2625 154.408 60.3653 154.121 59.7913C153.834 59.2173 153.331 59.4033 153.331 59.4033Z" fill="#FFC19D"/>
<path d="M143.842 38.1342C143.842 38.1342 139.866 38.7162 138.896 44.2434C137.926 49.7711 138.411 72.8511 139.478 74.5967C140.545 76.3423 149.279 73.5719 149.279 73.5719L147.72 67.6939L146.711 47.2498L143.842 38.1342Z" fill="#FFC19D"/>
<path d="M147.459 67.4194C147.432 67.4806 146.229 66.849 144.606 66.547C142.985 66.2302 141.635 66.3754 141.632 66.3082C141.629 66.283 141.962 66.2142 142.51 66.1866C143.057 66.1582 143.82 66.1862 144.645 66.343C145.469 66.501 146.189 66.7558 146.688 66.9834C147.187 67.211 147.471 67.3974 147.459 67.4194Z" fill="#FF9C6A"/>
<path d="M149.03 63.9616C149.096 63.9972 148.175 65.4128 147.58 67.3776C147.28 68.3564 147.109 69.272 146.986 69.9352C146.866 70.5984 146.79 71.0104 146.76 71.006C146.734 71.0028 146.757 70.5848 146.841 69.9124C146.926 69.2412 147.076 68.3112 147.381 67.3168C147.681 66.3212 148.091 65.4684 148.422 64.8768C148.759 64.2864 149.009 63.9484 149.03 63.9616Z" fill="#FF9C6A"/>
<path d="M146.17 43.1428C146.228 43.1374 146.463 45.1272 146.697 47.5866C146.931 50.0463 147.074 52.0445 147.017 52.0499C146.959 52.0558 146.723 50.0664 146.49 47.6058C146.256 45.1469 146.113 43.1483 146.17 43.1428Z" fill="#1A2E35"/>
<path d="M185.256 64.5188C185.244 64.5276 185.098 64.372 184.845 64.0828C184.594 63.7924 184.224 63.376 183.764 62.8664C182.844 61.8456 181.53 60.4752 180.032 59.008C178.533 57.5656 177.178 56.2608 176.16 55.2808C175.666 54.8024 175.268 54.4132 174.997 54.1392C174.727 53.8656 174.581 53.7096 174.592 53.6988C174.601 53.6884 174.765 53.8248 175.053 54.0804C175.367 54.364 175.773 54.7316 176.262 55.1732C177.276 56.1024 178.675 57.3896 180.178 58.8596C181.679 60.3292 182.98 61.7204 183.874 62.7688C184.322 63.2924 184.675 63.7244 184.908 64.0312C185.142 64.3368 185.266 64.51 185.256 64.5188Z" fill="#FF9C6A"/>
<path d="M177.394 55.941C177.352 55.9346 177.5 55.1569 177.516 53.8881C177.537 53.2541 177.485 52.4993 177.409 51.6653C177.312 50.8325 177.165 49.9217 176.958 48.9753C176.535 47.0841 175.975 45.4157 175.542 44.2201C175.326 43.6221 175.144 43.1401 175.017 42.8077C174.89 42.4745 174.827 42.2873 174.84 42.2817C174.853 42.2761 174.942 42.4525 175.091 42.7765C175.242 43.1001 175.445 43.5745 175.68 44.1681C176.15 45.3537 176.735 47.0241 177.162 48.9305C177.37 49.8837 177.513 50.8041 177.6 51.6457C177.666 52.4893 177.703 53.2521 177.664 53.8921C177.659 54.2121 177.628 54.5001 177.601 54.7529C177.58 55.0065 177.55 55.2233 177.513 55.3986C177.45 55.7506 177.408 55.9433 177.394 55.941Z" fill="#1A2E35"/>
<path d="M167.514 132.286L168.013 149.252L189.124 148.739C188.952 146.726 177.932 142.942 177.932 142.942L178.058 132.058L167.514 132.286Z" fill="#FF735D"/>
<path d="M171.379 142.18C170.973 142.302 170.702 142.768 170.807 143.178C170.912 143.588 171.383 143.869 171.791 143.754C172.2 143.64 172.542 143.09 172.392 142.694C172.242 142.298 171.67 141.999 171.301 142.208" fill="white"/>
<path d="M168.009 149.289L167.947 147.472L188.267 147.754C188.267 147.754 189.271 148.049 189.266 149.16L168.009 149.289Z" fill="#1A2E35"/>
<path d="M178.274 142.822C178.273 142.926 177.759 142.985 177.259 143.329C176.751 143.66 176.5 144.112 176.404 144.074C176.309 144.056 176.448 143.436 177.06 143.031C177.668 142.62 178.294 142.727 178.274 142.822Z" fill="white"/>
<path d="M180.514 143.69C180.54 143.79 180.098 143.976 179.758 144.42C179.405 144.855 179.329 145.329 179.226 145.327C179.129 145.345 179.043 144.743 179.476 144.198C179.904 143.65 180.509 143.592 180.514 143.69Z" fill="white"/>
<path d="M181.827 146.302C181.734 146.326 181.579 145.814 181.829 145.243C182.076 144.67 182.557 144.435 182.603 144.52C182.663 144.604 182.357 144.914 182.159 145.386C181.949 145.853 181.93 146.289 181.827 146.302Z" fill="white"/>
<path d="M178.027 140.344C177.986 140.44 177.509 140.309 176.927 140.362C176.345 140.404 175.896 140.611 175.84 140.524C175.779 140.451 176.213 140.058 176.898 140.005C177.584 139.946 178.075 140.263 178.027 140.344Z" fill="white"/>
<path d="M184.534 100.53L193.151 114.631L210.749 104C209.63 102.381 198.487 104.505 198.487 104.505L193.337 95.2449L184.534 100.53Z" fill="#FF735D"/>
<path d="M192.589 107.029C192.305 107.328 192.301 107.853 192.588 108.15C192.875 108.446 193.409 108.455 193.698 108.161C193.988 107.867 194.012 107.237 193.694 106.974C193.376 106.712 192.748 106.736 192.538 107.091" fill="white"/>
<path d="M193.169 114.66L192.24 113.154L209.552 103.577C209.552 103.577 210.542 103.451 210.783 104.057L193.169 114.66Z" fill="#1A2E35"/>
<path d="M198.723 104.242C198.772 104.331 198.366 104.629 198.11 105.16C197.84 105.685 197.848 106.189 197.748 106.203C197.658 106.234 197.476 105.643 197.798 105.005C198.113 104.364 198.694 104.152 198.723 104.242Z" fill="white"/>
<path d="M201.032 103.893C201.102 103.965 200.818 104.335 200.746 104.875C200.657 105.413 200.821 105.85 200.734 105.898C200.661 105.961 200.297 105.493 200.4 104.824C200.497 104.153 200.981 103.812 201.032 103.893Z" fill="white"/>
<path d="M203.406 105.467C203.339 105.532 202.961 105.175 202.897 104.572C202.829 103.968 203.122 103.537 203.201 103.587C203.293 103.628 203.184 104.038 203.244 104.533C203.292 105.029 203.486 105.407 203.406 105.467Z" fill="white"/>
<path d="M197.314 102.266C197.325 102.366 196.86 102.486 196.394 102.812C195.922 103.129 195.642 103.521 195.553 103.474C195.466 103.441 195.642 102.901 196.196 102.524C196.747 102.143 197.316 102.173 197.314 102.266Z" fill="white"/>
<path d="M141.968 82.802C141.968 82.802 138.797 91.7284 143.066 95.5304H160.572C160.572 95.5304 161.78 82.61 167.793 81.3436L185.948 106.607L197.658 98.6952C197.658 98.6952 183.628 70.7692 181.897 67.5064C179.892 63.7276 176.612 62.3012 172.498 62.9344C168.384 63.5672 162.967 66.3096 159.523 68.6304C152.244 73.536 141.968 82.802 141.968 82.802Z" fill="#1A2E35"/>
<g opacity="0.3">
<g opacity="0.3">
<path opacity="0.3" d="M167.661 137.176L178.007 136.614L178.02 135.465L167.612 135.516L167.661 137.176Z" fill="black"/>
</g>
</g>
<g opacity="0.3">
<g opacity="0.3">
<path opacity="0.3" d="M188.37 106.799L196.687 101.26L195.917 99.8753L187.581 105.508L188.37 106.799Z" fill="black"/>
</g>
</g>
<path d="M159.842 95.5286H161.899C161.899 95.5286 160.791 100.909 161.899 102.016C163.006 103.124 163.956 106.605 163.956 106.605L166.323 135.594L180.996 135.422L183.261 96.3202C183.261 96.3202 184.368 86.1926 178.988 81.9202C173.608 77.6482 169.828 79.8634 167.437 81.1294C165.046 82.395 162.684 83.2594 161.319 89.0074L159.842 95.5286Z" fill="#1A2E35"/>
<path d="M182.152 109.18C182.149 109.179 182.15 109.129 182.157 109.033C182.165 108.925 182.177 108.783 182.191 108.603C182.227 108.226 182.271 107.669 182.325 106.952C182.431 105.518 182.544 103.438 182.532 100.867C182.515 98.2973 182.367 95.2349 181.937 91.8641C181.712 90.1813 181.479 88.4065 180.983 86.6325C180.733 85.7473 180.407 84.8661 179.969 84.0261C179.525 83.1921 178.959 82.4033 178.249 81.7433C177.535 81.0893 176.704 80.5849 175.825 80.2409C174.943 79.9045 174.019 79.7177 173.105 79.6633C171.271 79.5505 169.499 80.0101 168.014 80.8037C166.521 81.5933 165.298 82.6813 164.335 83.8329C163.369 84.9877 162.661 86.2117 162.131 87.3765C161.083 89.7221 160.699 91.7913 160.463 93.2029C160.348 93.9121 160.286 94.4669 160.239 94.8425C160.218 95.0221 160.201 95.1637 160.189 95.2705C160.177 95.3669 160.168 95.4161 160.165 95.4157C160.161 95.4153 160.162 95.3657 160.167 95.2689C160.175 95.1613 160.185 95.0189 160.197 94.8381C160.231 94.4609 160.28 93.9037 160.383 93.1905C160.595 91.7717 160.957 89.6893 161.996 87.3165C162.523 86.1381 163.231 84.8957 164.203 83.7221C165.171 82.5521 166.407 81.4425 167.924 80.6341C169.431 79.8221 171.244 79.3465 173.117 79.4593C174.05 79.5137 174.995 79.7033 175.9 80.0477C176.801 80.3993 177.657 80.9177 178.391 81.5905C179.12 82.2689 179.7 83.0781 180.152 83.9297C180.598 84.7865 180.928 85.6813 181.18 86.5769C181.679 88.3729 181.908 90.1533 182.127 91.8397C182.548 95.2213 182.681 98.2917 182.679 100.867C182.673 103.443 182.536 105.525 182.406 106.958C182.34 107.675 182.281 108.231 182.233 108.607C182.21 108.787 182.192 108.928 182.178 109.035C182.165 109.131 182.156 109.18 182.152 109.18Z" fill="#375A64"/>
<path d="M166.804 85.5592C166.83 85.5832 166.409 86.0576 165.799 86.878C165.189 87.6968 164.413 88.88 163.73 90.2804C163.051 91.6824 162.599 93.0236 162.332 94.0096C162.064 94.9952 161.951 95.62 161.916 95.6144C161.902 95.6116 161.917 95.4536 161.958 95.1684C161.995 94.8836 162.073 94.474 162.19 93.9728C162.422 92.9708 162.856 91.6064 163.543 90.1892C164.233 88.774 165.038 87.59 165.682 86.788C166.004 86.3864 166.278 86.0724 166.479 85.8672C166.679 85.6596 166.793 85.5496 166.804 85.5592Z" fill="#375A64"/>
</svg>
